<?xml version="1.0" encoding="UTF-8"?>
<svg width="186px" height="74px" viewBox="0 0 186 74" version="1.1" xmlns="http://www.w3.org/2000/svg" xmlns:xlink="http://www.w3.org/1999/xlink">
    <!-- Generator: Sketch 42 (36781) - http://www.bohemiancoding.com/sketch -->
    <title>Group 2</title>
    <desc>Created with Sketch.</desc>
    <defs></defs>
    <g id="Page-1" stroke="none" stroke-width="1" fill="none" fill-rule="evenodd">
        <g id="Web_Final" transform="translate(-140.000000, 0.000000)">
            <g id="Tabs">
                <g id="Group-2" transform="translate(140.000000, 0.000000)">
                    <rect id="Rectangle-10" fill="#CB2F30" x="0" y="0" width="186" height="74"></rect>
                    <g id="BADO_logo" transform="translate(20.000000, 1.000000)" fill-rule="nonzero" fill="#FFFFFF">
                        <g id="Layer_1">
                            <g id="Group">
                                <path d="M32.1762885,26.1374352 C32.3192,26.1857137 32.4615116,26.2358703 32.6051196,26.2819748 C33.6196795,26.5933768 34.5688669,27.0879353 35.4058807,27.7412652 C36.3482665,28.4914075 36.8053292,29.4877192 36.9445698,30.6628955 C37.0393357,31.4331123 36.9962746,32.2140842 36.8174072,32.9691616 C36.4982074,34.3586071 35.6226444,35.5554195 34.3961335,36.2788157 C33.3019707,36.9375574 32.0824656,37.3600012 30.8158032,37.5190635 C29.8077282,37.646972 28.7918403,37.702813 27.7758464,37.686163 C22.8641625,37.6811549 17.9524733,37.6804033 13.0407786,37.6839082 L12.4980754,37.6839082 L12.4680029,37.2755471 C12.6895802,37.2229743 12.884267,37.1860286 13.0733025,37.1299725 C13.400645,37.0766639 13.633651,36.7824778 13.6110402,36.4510417 C13.6174383,36.3366118 13.6141059,36.2215989 13.6141076,36.1068515 C13.6142163,29.8240205 13.6142402,23.5411882 13.6141793,17.2583547 C13.6141793,17.1722893 13.6151785,17.0861933 13.6133287,17.0001619 C13.6025757,16.500085 13.4433943,16.2964775 12.9685914,16.1809265 C12.8855044,16.1607057 12.7978906,16.1593496 12.7146746,16.13957 C12.4869356,16.0854385 12.403709,15.9573422 12.5397926,15.6861985 L12.9832086,15.6861985 C18.1669667,15.6863767 23.3507247,15.6860837 28.5344828,15.6853196 C29.8809154,15.6607202 31.2213827,15.870568 32.4961216,16.3055072 C33.4950137,16.6632311 34.4079287,17.1749207 35.0599737,18.0377817 C36.2395299,19.5987109 36.4325084,21.3344096 35.8602502,23.1712286 C35.6518644,23.7718312 35.2818924,24.303093 34.7911586,24.7063925 C34.1518331,25.2635261 33.3946946,25.6681601 32.5767124,25.8898487 C32.4429101,25.9282689 32.311056,25.9734998 32.1782995,26.0155899 L32.1762885,26.1374352 Z M19.8495067,33.2993031 C20.0116302,33.3138576 20.1367729,33.3348515 20.2619209,33.3348856 C22.6242422,33.3355654 24.9866746,33.3463655 27.3488186,33.3250684 C28.0931447,33.3298668 28.8343606,33.2284671 29.5501463,33.0239227 C30.457743,32.7504867 30.9903808,32.1602707 31.1025483,31.2255328 C31.2777151,29.7657293 30.7838899,28.6777951 29.2422033,28.3872486 C28.5701092,28.2521446 27.8876132,28.1754973 27.2023383,28.1581628 C24.911941,28.1300011 22.6209868,28.1463672 20.3302474,28.1483313 C20.1777523,28.1484623 20.0252787,28.1705522 19.8495067,28.184242 L19.8495067,33.2993031 Z M19.8528588,20.0606188 L19.8528588,23.9340724 C19.9294357,23.9491539 20.0068735,23.9594578 20.0847253,23.9649247 C22.5449246,23.9607525 25.0053333,23.9699705 27.4651798,23.9374303 C28.0068026,23.9150623 28.5436674,23.8264802 29.0638384,23.6736536 C29.5839718,23.5546413 29.9799899,23.1313824 30.0648864,22.6037465 C30.1562701,22.1675343 30.1455036,21.7160434 30.0334316,21.2846996 C29.9478175,20.930524 29.7088057,20.6331387 29.3816623,20.4737495 C29.1558094,20.3517038 28.9124583,20.2654131 28.6602522,20.2179424 C28.0685771,20.1222243 27.4713315,20.0650163 26.8722698,20.0466778 C24.6696725,20.0255888 22.4667744,20.0353432 20.2639873,20.0351979 C20.1384239,20.0351853 20.0128676,20.0503209 19.8528588,20.0606224 L19.8528588,20.0606188 Z" id="Shape"></path>
                                <path d="M75.2357866,37.6839082 L75.2105382,37.2749354 C75.4338345,37.2220201 75.628815,37.1856251 75.8177269,37.1289375 C76.1448316,37.073861 76.3764432,36.7785888 76.3524868,36.4471941 C76.3601043,36.3041325 76.3560681,36.1604108 76.3560681,36.0169887 C76.3561934,29.7777826 76.3562287,23.5385771 76.3561737,17.2993722 C76.3561737,17.256344 76.356231,17.2133139 76.3560842,17.1702839 C76.3535504,16.4365812 76.2582761,16.3185513 75.5372993,16.155868 C75.2156613,16.0832914 75.2046451,16.0662455 75.2732796,15.6862111 L75.7277745,15.6862111 C80.2380813,15.6863366 84.7483869,15.6860831 89.2586913,15.6854505 C90.8923218,15.6563955 92.5169529,15.9338435 94.0486933,16.503468 C96.9031977,17.6106849 98.787253,19.6462611 99.7050994,22.5619362 C100.445451,24.8395284 100.531085,27.2798408 99.9522117,29.6038855 C99.1399269,32.8669525 97.1511945,35.1574247 94.127574,36.5688007 C92.8019619,37.1872648 91.3685143,37.5403933 89.9077495,37.6083505 C89.0221135,37.6525088 88.1346941,37.6788714 87.2479981,37.6806472 C83.4249928,37.6883065 79.6019756,37.6893977 75.7789464,37.6839208 L75.2357866,37.6839082 Z M82.5927744,20.5768376 L82.5927744,32.7898001 C82.7857045,32.8008388 82.9526414,32.8184533 83.1195979,32.8186793 C84.6380847,32.8208049 86.1568365,32.8370329 87.6749114,32.8122362 C88.3754475,32.806602 89.074633,32.7496248 89.7668668,32.6417609 C91.5963712,32.3401416 92.9354992,31.3559377 93.6431141,29.6150945 C94.4332484,27.7397349 94.435949,25.6246092 93.6506062,23.747231 C93.0460247,22.245637 91.9499995,21.2391673 90.3679441,20.8446431 C89.7171574,20.6784271 89.0500203,20.5847936 88.3786906,20.5654491 C86.5888263,20.5272425 84.7976458,20.550884 83.0069846,20.5517719 C82.88114,20.5518418 82.7552972,20.5666007 82.5927726,20.5768376 L82.5927744,20.5768376 Z" id="Shape"></path>
                                <path d="M118.244525,37.7871273 C116.040033,37.8058503 113.965209,37.5191424 111.982308,36.7438877 C108.951065,35.5587633 106.803076,33.4697193 105.706265,30.3751544 C105.12197,28.7266512 105.041332,27.0138747 105.209773,25.2799411 C105.408994,23.0752262 106.335925,20.9998659 107.844103,19.3817866 C109.312707,17.7734596 111.149318,16.7588536 113.211733,16.1210138 C115.190554,15.5292102 117.260127,15.3018633 119.319955,15.4500131 C121.659222,15.5903231 123.899307,16.1412956 125.936724,17.3476579 C128.526859,18.8812882 130.290114,21.0741217 130.904202,24.0502386 C131.537469,27.1193503 131.235252,30.0771173 129.4318,32.7520329 C127.950576,34.9490189 125.87848,36.33007 123.369,37.0805083 C121.707047,37.5775456 119.978729,37.8158652 118.244525,37.7871273 Z M111.234509,26.7251076 C111.258085,27.0019822 111.262848,27.3632506 111.323106,27.7149816 C111.655467,29.6551488 112.704415,31.0963852 114.443874,31.9900268 C116.715158,33.1568766 119.061743,33.2258746 121.399725,32.2193547 C123.472512,31.3269939 124.732383,29.7550224 125.027082,27.4752697 C125.350378,24.9743684 124.267699,22.6393827 122.030289,21.4401398 C119.55539,20.1136005 117.004653,20.0731606 114.498287,21.3343791 C112.349988,22.4154127 111.297537,24.240402 111.234509,26.7251076 Z" id="Shape"></path>
                                <path d="M60.7062642,15.7128194 C60.815178,15.9530641 60.7509933,16.0781255 60.5216123,16.1555738 C60.0117696,16.3277173 59.9336087,16.4931988 60.1406512,17.0265694 C60.9441438,19.0964366 61.7366739,21.1709334 62.570923,23.2283915 C64.2719451,27.423488 65.9967831,31.6088964 67.71424,35.7972932 C67.8119227,36.0355019 67.9289411,36.2659617 68.0414864,36.4978242 C68.2220681,36.8698693 68.4558471,37.1867623 68.9267928,37.2690465 L68.9075557,37.6646345 L60.8186179,37.6646345 L60.7956812,37.27173 C60.9314873,37.2410821 61.0433701,37.2253062 61.1489067,37.1903157 C61.5302403,37.0638893 61.6406332,36.8450206 61.4958147,36.4650544 C61.1693131,35.6083836 60.8321106,34.7558097 60.5005254,33.9010816 C60.402087,33.6473498 60.2953148,33.3958225 60.2159667,33.1360512 C60.1867773,32.9740739 60.0362302,32.8632437 59.8731916,32.883706 C59.7730538,32.8865993 59.672728,32.8822585 59.5724846,32.8822549 C56.6222988,32.8821425 53.6721202,32.8821502 50.7219488,32.8822782 C50.6217071,32.8822782 50.5213939,32.886567 50.4212418,32.884054 C50.258592,32.8653978 50.1073546,32.9704652 50.0677961,33.1295991 C49.6597655,34.2918462 49.2371176,35.4490169 48.8376392,36.6141716 C48.7210756,36.9541339 48.8698193,37.1462327 49.2371552,37.2216218 C49.5590762,37.2876925 49.5590762,37.2876943 49.5012483,37.6584856 L42.2516308,37.6584856 L42.227532,37.3215673 C42.2609477,37.2836853 42.2763439,37.2486876 42.2981918,37.2440203 C42.8922818,37.1172692 43.1572273,36.6751821 43.3495344,36.1573059 C43.7284989,35.1367374 44.1069011,34.1159107 44.4942675,33.0985262 C46.4770411,27.8909098 48.461264,22.6838472 50.4469361,17.4773382 C50.508177,17.3166633 50.5676397,17.1553127 50.6253243,16.9932865 C50.8399054,16.3943135 50.8229299,16.3512888 50.1942674,16.1577622 C49.9568445,16.0846726 49.9071642,15.9526964 50.001998,15.7128212 L60.7062642,15.7128194 Z M54.9280228,19.5988167 C54.4675255,20.7272858 54.0786479,21.8424274 53.6617606,22.946281 C53.2470042,24.0444861 52.8303694,25.1420957 52.4290842,26.2452641 C52.0264829,27.3520433 51.571175,28.4409819 51.2078484,29.6053904 L58.9852421,29.6053904 C58.9624111,29.2528989 55.2260025,20.0194883 54.9280228,19.5988167 L54.9280228,19.5988167 Z" id="Shape"></path>
                                <path d="M130.058033,48.927971 C130.057542,49.6045807 129.947908,50.2766654 129.733372,50.9182392 C129.239746,52.3773234 128.279772,53.4129395 126.836372,53.9456751 C125.2166,54.5754154 123.416536,54.5537023 121.812372,53.8850736 C120.017693,53.1478462 119.094295,51.7279391 118.810104,49.8490891 C118.684148,49.0242675 118.723018,48.1825985 118.924457,47.3729486 C119.362328,45.6036675 120.456686,44.4180427 122.18517,43.8582126 C123.608774,43.3840331 125.147221,43.3832989 126.571276,43.8561193 C128.488714,44.4842281 129.601171,45.8338977 129.943104,47.8189443 C130.006059,48.1843561 130.020957,48.5580856 130.058033,48.927971 Z M122.10224,48.8699597 C122.061409,49.5530567 122.186739,50.2358721 122.467463,50.8597453 C122.84875,51.6387453 123.444382,52.1043896 124.347749,52.1238338 C125.274986,52.143782 125.88026,51.6756784 126.28975,50.8909295 C126.517367,50.4267524 126.650405,49.921809 126.681099,49.4055706 C126.762592,48.4749547 126.658583,47.5707677 126.175235,46.7500686 C125.743204,45.9722286 124.85142,45.5722607 123.984455,45.767497 C123.17049,45.9174196 122.68211,46.4385354 122.383996,47.1688855 C122.172749,47.710042 122.076779,48.2894614 122.102244,48.8699597 L122.10224,48.8699597 Z" id="Shape"></path>
                                <path d="M77.6330385,43.8721285 C77.8043553,43.8585678 77.9159247,43.8420295 78.0274761,43.8420743 C79.4875603,43.8426753 80.9478055,43.8331056 82.4076586,43.852713 C83.2673741,43.8636498 84.1178643,44.0318044 84.9172553,44.3488975 C86.7508996,45.0733553 87.6657073,46.4662451 87.8182275,48.3944408 C87.8890169,49.1237995 87.8357116,49.8599034 87.6605824,50.5713926 C87.3520509,51.8633089 86.4537925,52.9340439 85.2364813,53.4609508 C84.4995463,53.8156617 83.698034,54.0158104 82.8811149,54.0491183 C81.2081239,54.0939762 79.5341928,54.1037036 77.8606181,54.1263944 C77.7841984,54.1203779 77.708216,54.109699 77.633094,54.0944174 C77.6328809,50.6999894 77.6329937,47.3092099 77.6330385,43.8721285 Z M80.9621918,45.873464 L80.9621918,52.120779 C81.2984291,52.120779 81.6091871,52.1249046 81.919809,52.1200615 C83.108479,52.132303 84.1483008,51.3211431 84.42764,50.1637148 C84.6097223,49.4678881 84.6296513,48.7394404 84.4858868,48.0346685 C84.1681972,46.3759464 82.7698177,45.5425781 80.9621918,45.873464 Z" id="Shape"></path>
                                <path d="M53.5129758,43.8677948 L56.7033863,43.8677948 C56.7206716,44.0503438 56.7514353,44.2286488 56.7523055,44.407108 C56.761617,46.3150668 56.7610351,48.2230884 56.7770168,50.1309772 C56.774847,50.4602615 56.8141282,50.7885062 56.8939313,51.107947 C57.0096798,51.645406 57.4512115,52.0513167 57.9956901,52.1208203 C58.2611103,52.1712866 58.5327041,52.1805249 58.8009304,52.1482107 C59.5569255,52.0280947 59.9917249,51.5685832 60.0938055,50.8076605 C60.138183,50.4664046 60.1604191,50.1226248 60.1603736,49.7784857 C60.1667376,47.9852151 60.1626764,46.1919175 60.164596,44.3986254 C60.1647751,44.2308138 60.1813942,44.0630165 60.1917765,43.8691867 L63.3724763,43.8691867 C63.3908475,43.9800129 63.4030981,44.0917702 63.4091724,44.203949 C63.4110867,46.2841642 63.4194545,48.3644369 63.4071203,50.4445841 C63.3972054,52.1161888 62.5369021,53.3567757 60.9835116,53.9527568 C59.9577767,54.3277199 58.8610566,54.4670791 57.7743474,54.3605422 C57.1164678,54.3261625 56.4675332,54.1925379 55.8494595,53.9641811 C54.3212602,53.3594663 53.5290363,52.213171 53.4963906,50.5948744 C53.4530009,48.4437938 53.4839992,46.2912047 53.4846438,44.1392631 C53.4846796,44.0563456 53.5015083,43.9734228 53.5129758,43.8677948 Z" id="Shape"></path>
                                <path d="M20.7100249,44.4879949 L19.1155726,46.1423834 C19.0000745,46.0798841 18.8787854,46.0113794 18.7549965,45.94775 C18.1013059,45.6117644 17.4180387,45.4438075 16.685342,45.6143869 C16.504251,45.6548892 16.3297937,45.7208613 16.1671602,45.8103405 C15.8840541,45.9631255 15.7004044,46.2521579 15.6820844,46.5737645 C15.6637645,46.8953712 15.8134002,47.203454 16.0773188,47.3875066 C16.2780579,47.5247446 16.4936183,47.6388491 16.7199073,47.7276537 C17.2211637,47.9359769 17.7399257,48.1041867 18.2329773,48.3295254 C18.6913323,48.5282764 19.1317551,48.7661862 19.5493674,49.0406197 C21.042287,50.0660743 20.810177,51.8698293 20.0461436,52.8312958 C19.5714954,53.4128193 18.9311694,53.8355996 18.2105295,54.0432743 C17.2679425,54.3423395 16.2739638,54.443718 15.2905475,54.3410908 C14.3073825,54.250263 13.3491124,53.9799617 12.4630947,53.5435454 C12.3007527,53.4627804 12.1482952,53.3620816 11.9426226,53.242249 L13.576808,51.5684845 C13.718432,51.642792 13.8426596,51.7055945 13.964708,51.7723987 C14.6364954,52.1657916 15.4124417,52.3436559 16.1881647,52.282065 C16.4571572,52.2573648 16.7184705,52.1788649 16.9566408,52.0512106 C17.2620602,51.90396 17.4615601,51.6000347 17.4754841,51.2607862 C17.489408,50.9215377 17.3154876,50.6022333 17.0231659,50.4303651 C16.6813775,50.2227803 16.3215644,50.0465541 15.9481149,49.9038359 C15.4616082,49.6979665 14.9597877,49.5284741 14.4728835,49.3234837 C14.2241187,49.2145643 13.9842171,49.0863677 13.7553627,48.9400608 C12.145106,47.9410191 12.2878223,45.8127136 13.3456363,44.8113239 C13.91492,44.2831273 14.6132332,43.9147173 15.370089,43.7432805 C16.8494711,43.36815 18.4086029,43.4620534 19.8324578,44.0120402 C20.0569223,44.1045141 20.275617,44.2104599 20.4873517,44.3293009 C20.5655157,44.3764208 20.6399582,44.4294743 20.7100249,44.4879949 L20.7100249,44.4879949 Z" id="Shape"></path>
                                <path d="M41.1354303,43.8669571 L41.1354303,45.70176 C40.2487737,45.7080973 39.3844181,45.7142731 38.4730878,45.720788 C38.4224674,47.1622666 38.4532114,48.5497501 38.4478627,49.9364371 C38.4425569,51.3104818 38.4467041,52.6845696 38.4467041,54.0417711 C38.0956794,54.1447319 35.9284317,54.1704164 35.2638592,54.0861088 C35.2628779,53.413892 35.2614776,52.7315172 35.2609941,52.0491478 C35.2604927,51.3464882 35.2604551,50.6438304 35.2608813,49.9411744 L35.2608813,45.7711796 C34.3570253,45.6293234 33.4717064,45.7754845 32.6059988,45.6848594 C32.5008688,45.0836811 32.4983046,44.4689945 32.5984153,43.8669571 L41.1354303,43.8669571 Z" id="Shape"></path>
                                <path d="M104.894463,54.1078167 L101.749038,54.1078167 C101.635375,53.7675746 101.608471,44.4044604 101.712578,43.9157594 C102.015939,43.824006 104.34333,43.8008614 104.894463,43.8894847 L104.894463,54.1078167 Z" id="Shape"></path>
                            </g>
                        </g>
                    </g>
                </g>
            </g>
        </g>
    </g>
</svg>