<?xml version="1.0" encoding="UTF-8"?>
<svg width="1920px" height="597px" viewBox="0 0 1920 597" version="1.1" xmlns="http://www.w3.org/2000/svg" xmlns:xlink="http://www.w3.org/1999/xlink">
    <!-- Generator: Sketch 42 (36781) - http://www.bohemiancoding.com/sketch -->
    <title>Contact_BackgroundBADO</title>
    <desc>Created with Sketch.</desc>
    <defs></defs>
    <g id="Page-1" stroke="none" stroke-width="1" fill="none" fill-rule="evenodd">
        <g id="Web-Copy-3" transform="translate(0.000000, -8458.000000)" fill="#FFFFFF">
            <g id="Contact-Us" transform="translate(-87.000000, 8458.000000)">
                <path d="M0,12.8660965 L229.177343,12.8660965 C255.445755,12.8660965 278.966352,16.5516602 299.739841,23.9228981 C320.51333,31.2941361 338.137025,41.2116529 352.611456,53.6757462 C367.085887,66.1398394 378.142578,80.815084 385.781861,97.70192 C393.421144,114.588756 397.240728,132.413482 397.240728,151.176633 C397.240728,176.10482 391.410837,199.424387 379.750878,221.136033 C368.09092,242.847679 350.065163,261.744569 325.673067,277.82727 C344.436218,285.064486 360.451667,293.641798 373.719896,303.559463 C386.988124,313.477129 397.776774,324.46681 406.08617,336.528836 C414.395565,348.590861 420.426487,361.456829 424.179118,375.127125 C427.931748,388.797421 429.808035,402.869573 429.808035,417.344004 C429.808035,439.859785 424.983297,461.102034 415.333676,481.071388 C405.684056,501.040742 392.751078,518.463406 376.534354,533.339905 C360.317631,548.216403 341.621771,560.010207 320.446215,568.72167 C299.270659,577.433133 277.291297,581.788799 254.507471,581.788799 L0,581.788799 L0,12.8660965 Z M89.6606097,244.053767 L215.909181,244.053767 C229.847522,244.053767 242.7805,241.775419 254.708503,237.218654 C266.636507,232.661888 276.822064,226.563956 285.265482,218.924673 C293.708901,211.28539 300.342915,202.306016 305.167725,191.986283 C309.992536,181.66655 312.404905,170.743879 312.404905,159.217944 C312.404905,148.764188 310.729648,139.047702 307.379086,130.068194 C304.028523,121.088686 298.801724,113.315497 291.698531,106.748394 C284.595338,100.181291 275.615964,95.021502 264.760141,91.2688718 C253.904318,87.5162415 241.105361,85.6399546 226.362885,85.6399546 L89.6606097,85.6399546 L89.6606097,244.053767 Z M89.6606097,509.417007 L229.981474,509.417007 C242.847635,509.417007 255.780613,507.54072 268.780796,503.78809 C281.78098,500.035459 293.440763,494.272578 303.760496,486.499272 C314.080229,478.725967 322.523521,468.87546 329.090624,456.947457 C335.657726,445.019454 338.941229,430.880291 338.941229,414.529545 C338.941229,401.127295 335.992778,388.395347 330.095787,376.333322 C324.198797,364.271296 315.621485,353.683676 304.363594,344.570146 C293.105704,335.456615 279.435613,328.219508 263.352912,322.858608 C247.270211,317.497708 229.043423,314.817298 208.672002,314.817298 L89.6606097,314.817298 L89.6606097,509.417007 Z M777.192639,12.8660965 L984.256379,581.788799 L890.575114,581.788799 L829.461156,413.323349 L618.376761,413.323349 L557.262803,581.788799 L462.375342,581.788799 L672.25354,12.8660965 L777.192639,12.8660965 Z M723.717926,121.423785 C717.016801,140.186937 710.382786,158.614755 703.815683,176.707794 L684.114473,230.986638 C677.54737,249.079677 670.980365,267.306464 664.413263,285.667548 C657.84616,304.028632 651.078125,322.992532 644.108954,342.559818 L802.924832,342.559818 L723.717926,121.423785 Z M1025.26706,12.8660965 L1244.79483,12.8660965 C1283.66136,12.8660965 1318.64071,20.3042341 1349.73393,35.1807325 C1380.82715,50.0572309 1407.2962,70.3613364 1429.14187,96.0936579 C1450.98754,121.82598 1467.80711,151.913581 1479.60109,186.357366 C1491.39507,220.801151 1497.29198,257.455757 1497.29198,296.322284 C1497.29198,336.529037 1491.12703,374.054776 1478.79696,408.900628 C1466.46689,443.74648 1449.17825,473.968103 1426.93051,499.566402 C1404.68277,525.164701 1378.07971,545.267775 1347.12051,559.876229 C1316.16131,574.484682 1282.05309,581.788799 1244.79483,581.788799 L1025.26706,581.788799 L1025.26706,12.8660965 Z M1114.12354,509.417007 L1221.07297,509.417007 C1247.87747,509.417007 1272.60425,504.659279 1295.25405,495.143681 C1317.90386,485.628083 1337.47085,471.756961 1353.95562,453.5299 C1370.44039,435.302839 1383.30636,413.055436 1392.55391,386.787025 C1401.80146,360.518613 1406.42517,330.632042 1406.42517,297.126415 C1406.42517,260.672293 1401.73445,229.110466 1392.35288,202.439987 C1382.9713,175.769507 1370.03832,153.790146 1353.55355,136.501242 C1337.06879,119.212339 1317.50179,106.413381 1294.85199,98.1039855 C1272.20219,89.79459 1247.60942,85.6399546 1221.07297,85.6399546 L1114.12354,85.6399546 L1114.12354,509.417007 Z M2093.55513,297.930546 C2093.55513,341.889929 2087.72524,382.096078 2076.06528,418.550201 C2064.40533,455.004323 2047.45173,486.43213 2025.204,512.834564 C2002.95626,539.236998 1975.54907,559.742134 1942.9816,574.350587 C1910.41413,588.959041 1873.08942,596.263158 1831.00635,596.263158 C1789.19133,596.263158 1752.06765,588.959041 1719.63421,574.350587 C1687.20076,559.742134 1659.79357,539.236998 1637.41181,512.834564 C1615.03005,486.43213 1598.07646,455.004323 1586.55052,418.550201 C1575.02458,382.096078 1569.2617,341.889929 1569.2617,297.930546 C1569.2617,254.239209 1575.02458,214.16708 1586.55052,177.712957 C1598.07646,141.258835 1615.03005,109.831028 1637.41181,83.4285942 C1659.79357,57.0261601 1687.20076,36.5210239 1719.63421,21.9125705 C1752.06765,7.30411714 1789.19133,0 1831.00635,0 C1873.08942,0 1910.41413,7.30411714 1942.9816,21.9125705 C1975.54907,36.5210239 2002.95626,57.0261601 2025.204,83.4285942 C2047.45173,109.831028 2064.40533,141.258835 2076.06528,177.712957 C2087.72524,214.16708 2093.55513,254.239209 2093.55513,297.930546 Z M2003.89452,297.930546 C2003.89452,262.280559 1999.47185,230.450691 1990.62636,202.439987 C1981.78088,174.429282 1969.58501,150.707654 1954.0384,131.27439 C1938.49179,111.841127 1920.19799,96.9648515 1899.15646,86.6451184 C1878.11492,76.3253852 1855.39845,71.1655961 1831.00635,71.1655961 C1806.8823,71.1655961 1784.36686,76.3253852 1763.45935,86.6451184 C1742.55183,96.9648515 1724.39206,111.841127 1708.97947,131.27439 C1693.56688,150.707654 1681.43803,174.429282 1672.59254,202.439987 C1663.74705,230.450691 1659.32438,262.280559 1659.32438,297.930546 C1659.32438,333.580533 1663.74705,365.477412 1672.59254,393.622139 C1681.43803,421.766865 1693.56688,445.555504 1708.97947,464.988767 C1724.39206,484.422031 1742.55183,499.298306 1763.45935,509.61804 C1784.36686,519.937773 1806.8823,525.097562 1831.00635,525.097562 C1855.39845,525.097562 1878.11492,519.937773 1899.15646,509.61804 C1920.19799,499.298306 1938.49179,484.422031 1954.0384,464.988767 C1969.58501,445.555504 1981.78088,421.766865 1990.62636,393.622139 C1999.47185,365.477412 2003.89452,333.580533 2003.89452,297.930546 Z" id="Contact_BackgroundBADO"></path>
            </g>
        </g>
    </g>
</svg>