<?xml version="1.0" encoding="UTF-8"?>
<svg width="41px" height="40px" viewBox="0 0 41 40" version="1.1" xmlns="http://www.w3.org/2000/svg" xmlns:xlink="http://www.w3.org/1999/xlink">
    <!-- Generator: Sketch 42 (36781) - http://www.bohemiancoding.com/sketch -->
    <title>Service_Film Icon</title>
    <desc>Created with Sketch.</desc>
    <defs></defs>
    <g id="Page-1" stroke="none" stroke-width="1" fill="none" fill-rule="evenodd">
        <g id="Web-Copy-3" transform="translate(-394.000000, -1678.000000)" fill-rule="nonzero" fill="#FFFFFF">
            <g id="Formats" transform="translate(323.000000, 1230.000000)">
                <path d="M111.263688,464.192002 L77.136356,464.192002 L77.8107891,463.989165 L86.1372497,461.519624 L102.790171,456.5704 L109.767765,454.496392 C110.034579,454.415785 110.186321,454.134948 110.107517,453.867597 L108.474679,448.360571 C108.394072,448.093758 108.113236,447.942015 107.845884,448.020819 L71.3605712,458.852317 C71.0937577,458.932924 70.9420153,459.21376 71.0208192,459.481112 L72.542097,464.67374 L72.542097,487.492907 C72.542097,487.772967 72.7691301,488 73.0491896,488 L111.263688,488 C111.543748,488 111.770781,487.772967 111.770781,487.492907 L111.770781,464.67374 C111.757258,464.403629 111.534138,464.191664 111.263688,464.192002 Z M107.648118,449.131352 L108.996984,453.669831 L103.459533,455.333095 L105.442265,449.805785 L107.648118,449.131352 Z M104.235385,450.145537 L102.252653,455.672847 L95.1533562,457.787423 L97.1360882,452.260113 L104.235385,450.145537 Z M95.9089241,452.620149 L93.9211211,458.147458 L86.8218247,460.262035 L88.8096277,454.734725 L95.9089241,452.620149 Z M87.5824636,455.094761 L85.5946606,460.62207 L78.4953641,462.736647 L80.4780962,457.209337 L87.5824636,455.094761 Z M72.1161392,459.683949 L79.2154356,457.569373 L77.273271,463.091611 L73.5765659,464.186931 L73.4751474,464.186931 L72.1161392,459.683949 Z M73.571495,487.011169 L73.571495,465.251826 L73.7236227,465.206187 L110.741383,465.206187 L110.741383,487.011169 L73.571495,487.011169 Z M88.5865069,480.926058 L94.5803415,477.21414 C94.7295367,477.121677 94.8203065,476.958635 94.8203065,476.783112 C94.8203065,476.607588 94.7295367,476.444546 94.5803415,476.352083 L88.5915779,472.660449 C88.4378176,472.573822 88.2500771,472.573368 88.0959004,472.659252 C87.9417236,472.745136 87.8432887,472.905002 87.8360099,473.081336 L87.8360099,480.474746 C87.831353,480.656355 87.9242029,480.826579 88.0794143,480.920987 C88.2363093,481.016642 88.4296119,481.016642 88.5865069,480.926058 Z M93.3633193,476.783112 L88.8501951,479.56705 L88.8501951,473.989031 L93.3633193,476.783112 Z" id="Service_Film-Icon"></path>
            </g>
        </g>
    </g>
</svg>