<svg id="Layer_1" data-name="Layer 1" xmlns="http://www.w3.org/2000/svg" viewBox="0 0 1042.08 666.72">
  <defs>
    <style>
      .cls-1 {
        fill: #fff;
      }
    </style>
  </defs>
  <title>7131</title>
  <g>
    <path class="cls-1" d="M0,666.72V0H1042.08V666.72Zm23.39185-49.29674h3.36368q126.71147,0,253.42288-.05162a167.40315,167.40315,0,0,0,19.37742-1.20475,162.02763,162.02763,0,0,0,45.6554-12.4c39.25784-17.0148,69.76523-43.76566,90.38871-81.466a156.00214,156.00214,0,0,0,19.29155-65.97407,175.407,175.407,0,0,0-2.64205-42.989q-9.0708-48.78343-46.60975-81.14279c-14.52577-12.58146-30.91629-22.1071-48.46811-29.75016-.77807-.33876-1.54351-.70641-2.32242-1.06406.13521-.25919.15431-.35338.21179-.39765,2.21634-1.70569,4.45327-3.385,6.65282-5.11192,15.81419-12.416,29.39183-26.85545,39.62048-44.25416A154.076,154.076,0,0,0,422.033,188.06073a148.07973,148.07973,0,0,0-1.47211-42.28685c-6.05572-32.18-21.48727-58.91808-46.65609-79.93371-15.59856-13.02458-33.3324-22.23717-52.44542-28.8924-21.21554-7.38734-43.17059-10.44363-65.53585-10.47171Q142.77133,26.334,29.61881,26.44c-1.4399,0-2.8801-.01657-4.31957.00839-.60573.0105-1.20994.109-1.90739.17647Zm589.66963-16.23469-.54357.10811q-38.2188-109.10751-76.43145-218.19738H491.88914c-3.23394,7.47035-82.57383,231.74771-82.67722,233.84988,17.82144-.12363,35.63171-.24715,53.6059-.37184q11.91691-34.102,23.70108-67.8242h56.45947q11.83526,33.86795,23.66748,67.72717c.76289.03551,1.2365.0733,1.71041.07729,15.51521.13055,31.03031.33615,46.54576.36861,28.47668.05965,56.95365.00217,85.43051.02484a92.55349,92.55349,0,0,0,30.65408-4.79285c20.358-7.058,36.38279-19.79326,48.429-37.54365,11.9734-17.64322,18.40482-37.3207,20.67756-58.4049a149.49273,149.49273,0,0,0-2.32354-47.71708c-3.63873-16.92841-9.94471-32.75232-20.35307-46.68475-18.5284-24.80168-43.17264-38.37352-74.33895-38.75707-29.43229-.36223-58.87248-.0859-88.30916-.07913a13.10247,13.10247,0,0,0-1.707.23575Zm404.1157-102.825a165.088,165.088,0,0,0-2.923-31.31842,129.54551,129.54551,0,0,0-14.363-40.48726c-12.99469-22.84951-31.95785-38.1963-57.423-45.143-14.61111-3.98581-29.49422-4.51972-44.49533-2.76677a93.11862,93.11862,0,0,0-44.48936,17.11295c-14.22422,10.27708-24.48252,23.76105-31.71281,39.63431-7.76168,17.03988-11.39959,35.06968-12.38373,53.6572a184.809,184.809,0,0,0,2.7777,45.38394c2.68447,13.74082,6.9709,26.91855,13.88941,39.14648,12.88969,22.7816,31.67438,38.324,57.00281,45.34576a113.34565,113.34565,0,0,0,56.96631.78686,89.83749,89.83749,0,0,0,49.63857-30.82207c9.06316-10.9016,15.38883-23.30824,19.80481-36.72762C1015.02012,535.28977,1017.22969,517.916,1017.17719,498.36357Z"/>
    <path d="M23.39185,617.42326V26.62487c.69746-.06745,1.30166-.166,1.90739-.17647,1.43947-.025,2.87967-.00839,4.31957-.00839q113.15238,0,226.30471.03605c22.36526.02808,44.32031,3.08438,65.53585,10.47171,19.113,6.65523,36.84686,15.86782,52.44542,28.8924,25.16883,21.01563,40.60037,47.75366,46.65609,79.93371a148.07973,148.07973,0,0,1,1.47211,42.28685,154.076,154.076,0,0,1-20.69874,63.55636c-10.22865,17.39871-23.80629,31.83817-39.62048,44.25416-2.19955,1.7269-4.43648,3.40623-6.65282,5.11192-.05748.04427-.07658.13846-.21179.39765.77892.35766,1.54436.7253,2.32242,1.06406,17.55182,7.64306,33.94233,17.1687,48.46811,29.75016q37.463,32.44847,46.60975,81.14279a175.407,175.407,0,0,1,2.64205,42.989,156.00214,156.00214,0,0,1-19.29155,65.97407c-20.62348,37.70033-51.13087,64.45119-90.38871,81.466a162.02763,162.02763,0,0,1-45.6554,12.4,167.40315,167.40315,0,0,1-19.37742,1.20475q-126.71134.11672-253.42288.05162Zm93.99328-79.42236h3.36844q64.913,0,129.826.00855a147.82819,147.82819,0,0,0,21.28854-1.32469A122.78113,122.78113,0,0,0,306.976,526.54582c19.87377-9.378,34.856-23.79375,44.61475-43.53779a82.32713,82.32713,0,0,0,7.73687-27.80924,96.05084,96.05084,0,0,0-1.5104-32.19563c-4.72-20.55073-15.49008-37.36318-31.66831-50.73023-16.44-13.58338-35.48432-21.70474-56.18013-26.19724a172.52086,172.52086,0,0,0-36.45245-3.59051q-17.758-.02817-35.51618-.00407-38.75572,0-77.51144.00633c-1.00452.00032-2.009.09205-3.10354.14558Zm.0301-273.441h2.50133q60.58871,0,121.17742-.00258a99.13289,99.13289,0,0,0,41.42855-8.7994c20.75323-9.4154,36.084-24.24514,44.9777-45.38156,7.00189-16.64041,7.75333-33.8087,3.78126-51.2719-4.6846-20.59575-16.85558-35.114-35.91715-44.01405-11.78159-5.501-24.26306-7.954-37.1526-8.48177-6.54891-.26818-13.114-.18321-19.6718-.18554q-59.029-.021-118.058-.00174c-1.00623.00016-2.01244.0772-3.06673.12036Zm87.75,5.05629c-3.36239,0-6.46875,0-9.57511,0H140.15856l-9.35858,0c-3.03926,0-6.07874.02285-9.11771-.00636-3.07611-.02956-6.16307.129-9.18489-.09311V101.29762h76.81888c-2.2389-23.40129-4.44957-46.50757-6.66623-69.67654a14.51322,14.51322,0,0,1-2.8234-.03114,4.54082,4.54082,0,0,0-4.12837,1.29865q-72.78774,60.51347-145.63108,120.96a4.47428,4.47428,0,0,0-1.82284,3.83843q.06863,51.47211.03427,102.94434v2.4656l179.46992,33.98687C206.86925,287.73434,206.02759,278.78511,205.16527,269.61618Zm-176.88672-4.582v3.26446q0,41.50753,0,83.0151c0,2.23934.05348,4.48046-.02109,6.7173a3.83388,3.83388,0,0,0,1.145,3.00706c1.6681,1.723,3.25724,3.52245,4.87863,5.29066q24.07827,26.25882,48.15926,52.51512c.62473.68109,1.29174,1.32334,1.98626,2.03183.72331-.67547,1.258-1.14706,1.76189-1.6495,8.04223-8.01829,16.05466-16.06676,24.14438-24.0368a6.10439,6.10439,0,0,0,2.03894-4.79795c-.08982-16.63453-.05056-33.26977-.05054-49.90477V337.48h3.15627c16.635,0,33.27023-.0385,49.90477.04972a6.16279,6.16279,0,0,0,4.81509-2.01855q17.25682-17.352,34.6089-34.60942c.54378-.54334,1.04329-1.131,1.90819-2.07384ZM205.612,612.32244c-.73792-1.05416-1.10143-1.65146-1.53946-2.18795q-22.91407-28.06348-45.82948-56.1259a4.29487,4.29487,0,0,0-2.96522-1.72166c-12.03277-1.657-24.053-3.40465-36.078-5.11881-12.02563-1.71428-24.04748-3.45656-36.08161-5.10914-3.87214-.53174-7.77018-.9982-11.67056-1.16742-4.14916-.18-8.31509.03656-12.47381.06322-2.628.01688-5.25624.00316-7.91353.00316C43.60582,527.457,36.2096,514.06166,28.6449,500.36121c-.60385,3.16945-.46772,110.34082.04766,111.96123ZM173.67687,32.1041l-.19648-.66294H170.44q-67.67169,0-135.34339.0005a13.898,13.898,0,0,0-2.15532.03842c-.50569.0801-1.23.28133-1.41447.64991-1.443,2.88278-3.3413,5.46887-3.31752,9.05724.14048,21.19647.0692,42.39434.0692,63.59174q0,22.5573.00478,45.11461c.00035.81248.06965,1.62492.127,2.87656Zm174.00171,192.328c1.28411-.661,2.42285-1.20879,3.5257-1.82125q9.54229-5.2991,19.071-10.62261c14.81467-8.23958,29.61454-16.5062,44.47046-24.67074a4.85666,4.85666,0,0,0,2.81982-4.51928,171.251,171.251,0,0,0-.35268-25.16279,135.42828,135.42828,0,0,0-10.23211-39.78483,3.27663,3.27663,0,0,0-3.00378-2.2245c-6.428-.77194-12.84334-1.65179-19.25933-2.52138q-23.99994-3.25282-47.99666-6.52917-24.71256-3.34992-49.42992-6.66469a19.04308,19.04308,0,0,0-2.16618-.01c1.18,2.341,2.13785,4.44056,3.29813,6.42163a4.12585,4.12585,0,0,0,1.92144,1.25668c2.63458,1.15406,5.34817,2.13723,7.94183,3.37383,15.051,7.176,26.66484,17.92184,33.32862,33.37171,7.65551,17.749,8.77228,36.19178,4.71688,54.99608a5.39025,5.39025,0,0,0,.48261,3.87511c3.264,6.41188,6.46324,12.85674,9.69788,19.28363C346.82493,223.10055,347.22483,223.67767,347.67858,224.43209Zm57.41268-110.47435c-.52512-1.164-.82456-1.88864-1.17223-2.58938a124.40559,124.40559,0,0,0-33.81492-42.14348c-29.16-23.43783-62.90112-34.76724-99.91787-37.19258a6.519,6.519,0,0,0-1.388.22608c.11666.61728.187,1.085.29446,1.54393q3.41517,14.58426,6.83839,29.16665,3.83432,16.33144,7.676,32.66117c.48454,2.059.49523,2.05413,2.42856,2.31127q5.58422.74275,11.16771,1.491,14.96689,2.01455,29.93294,4.035,16.86639,2.27987,33.73148,4.56881,17.2219,2.33143,34.44454,4.65721C398.388,113.10768,401.468,113.49026,405.09126,113.95775ZM377.28618,556.07162c1.29694.1217,2.46337.30293,3.63328.32906,6.94975.1558,13.90134.23783,20.84985.43242a5.5181,5.5181,0,0,0,4.61725-1.95826,176.20594,176.20594,0,0,0,23.049-31.7598,155.63571,155.63571,0,0,0,18.04849-48.00492,3.93867,3.93867,0,0,0-.55233-3.14388q-13.61057-21.03416-27.17435-42.09867a11.24889,11.24889,0,0,0-1.14814-1.27392c-.59174.51926-1.09233.90006-1.52481,1.34678q-8.423,8.701-16.8305,17.41693-11.50932,11.88853-23.05289,23.74371A5.72665,5.72665,0,0,0,375.326,475.787c.19143,2.78786.214,5.58809.27806,8.38374q.4892,21.33189.96085,42.66407.28863,13.06336.5584,26.12719C377.14406,553.91016,377.221,554.85709,377.28618,556.07162ZM369.13014,339.2c-.14616-1.54245-.27492-3.03281-.43055-4.52036-.69-6.59546-1.43807-13.18544-2.05143-19.788a4.10427,4.10427,0,0,0-2.78584-3.9174c-5.90561-2.43979-11.73721-5.05893-17.59377-7.617-.60255-.26323-1.18017-.58359-2.06391-1.02431,5.65562-3.875,10.97763-7.52156,16.12922-11.81385-.72914-.80813-1.27072-1.47357-1.87837-2.072-8.0342-7.91168-16.10467-15.7868-24.09258-23.74482a3.88791,3.88791,0,0,0-4.44732-1.13862c-8.55158,2.62764-17.15083,5.10018-25.73388,7.62536q-20.4612,6.01985-40.917,12.05824c-.76307.22629-1.78113.13582-2.21057,1.10918C263.47389,286.26946,367.04883,338.89462,369.13014,339.2Zm-.77232,14.55536c-2.74878-1.55382-156.31014-53.49519-158.26622-53.53764,1.91271,12.39993,3.81914,24.75923,5.74775,37.26226,1.354,0,2.46494-.00308,3.57582.00047,11.18465.03571,22.39491-.40119,33.52488.9861a208.87082,208.87082,0,0,1,20.80031,3.38042c20.20854,4.62829,38.75909,12.91573,54.98985,26.0272a13.28013,13.28013,0,0,0,1.19194.7725C342.70415,363.69445,355.41325,358.7705,368.35781,353.75531ZM28.27864,445.38788v2.30171q0,23.03481-.0247,46.06957a8.10713,8.10713,0,0,0,1.09164,4.08932Q39.68166,516.52365,49.97968,535.22c.3358.60814.7406,1.17814,1.15637,1.83387,1.21086-2.1607,31.3277-110.86822,31.23433-112.85379C64.326,431.26813,46.34951,438.30952,28.27864,445.38788Zm84.04263,97.532v-3.07623q0-31.9144.01884-63.82884a7.94854,7.94854,0,0,0-1.02674-4.10106q-12.49122-22.00447-24.93461-44.03613a19.424,19.424,0,0,0-1.35686-1.77439c-1.65738,19.23791-3.28895,37.92967-4.87241,56.62547-1.588,18.74889-3.27093,37.49057-4.798,56.39543,26.81672,3.80021,53.29718,7.55279,80.3078,11.38055-1.15759-2.10826-2.1526-3.71754-2.94473-5.421a3.48666,3.48666,0,0,0-3.72262-2.216c-11.27707.10582-22.55563.05238-33.83369.05232C114.30116,542.9199,113.4441,542.91984,112.32127,542.91984Zm101.87919.00006c-.68752,7.1523-1.34263,13.9674-2.01,20.90965,22.55858,13.09055,45.04332,26.13826,67.7994,39.34348.40037-1.101.70143-1.81916.925-2.56066q3.35307-11.12221,6.68317-22.25127,2.61105-8.72,5.197-17.44746a4.28646,4.28646,0,0,0,.01356-3.24516c-2.45238-5.28674-4.80674-10.619-7.2094-15.92895-.34951-.77238-.76969-1.51283-1.14334-2.24115-.64081.11021-1.03474.162-1.42145.24674a126.90957,126.90957,0,0,1-26.61173,3.145c-13.03138.06117-26.0632.02467-39.09483.02977C216.38071,542.9202,215.43357,542.9199,214.20045,542.9199Zm-1.67451-244.71448c3.72211,1.87793,156.13919,53.36528,157.97839,53.39859-.28608-2.70053-.68452-5.37841-.81308-8.06918a3.54394,3.54394,0,0,0-2.27569-3.30542c-3.93334-1.95841-7.82493-4.00034-11.7404-5.99487q-21.79129-11.10032-43.58593-22.19408-25.30648-12.914-50.57827-25.8958a7.52317,7.52317,0,0,0-6.16453-.62479c-6.23654,1.96855-12.53539,3.74-18.811,5.58448q-7.816,2.29729-15.63451,4.58622C218.23143,296.4777,215.56954,297.29051,212.52595,298.20542ZM375.26546,470.46126l.55134.232c.6213-.5555,1.27925-1.07552,1.85789-1.67238,3.50663-3.617,6.99018-7.25628,10.49074-10.8791Q402.25135,443.564,416.34229,428.991c1.70481-1.76528,1.70065-1.78693.386-3.83669q-3.30174-5.14806-6.62795-10.28045-17.80444-27.61625-35.6226-55.22361c-.37916-.58693-.54445-1.4802-1.74618-1.6398Q374.002,414.39173,375.26546,470.46126Zm-2.28967-117.07855c1.91027,3.89461,45.23218,70.70024,46.70572,71.97463.5071-.44938,1.0657-.88169,1.55147-1.38439,7.11246-7.3602,14.18813-14.75625,21.34714-22.07077a3.33531,3.33531,0,0,0,.865-3.844,145.53971,145.53971,0,0,0-8.88826-21.71446,8.18749,8.18749,0,0,0-3.80525-3.77918q-19.68108-9.96926-39.30492-20.05166-5.5495-2.83658-11.089-5.69279c-.9813-.506-1.88429-.87952-2.72452.288C376.09556,349.24468,374.49826,351.33829,372.97579,353.38271ZM28.43214,362.79123v80.47638c18.13391-7.10291,36.01705-14.10762,54.29013-21.265Zm345.048,113.32327-.53467-.25295c-.61954.55119-1.27655,1.066-1.85288,1.65911-6.35253,6.53813-12.66188,13.11861-19.05894,19.61279a9.07464,9.07464,0,0,0-2.58688,5.24338q-3.55043,23.09335-7.16584,46.1768c-.33832,2.18156-.618,4.37227-.919,6.517,3.13667.93744,31.62712,1.30207,33.911.45891Q374.37744,515.86157,373.48017,476.1145ZM227.97073,31.42841c.5359,1.495.84494,2.46689,1.228,3.40871,4.03384,9.91812,8.106,19.82077,12.1003,29.75476a10.96006,10.96006,0,0,0,3.908,4.9935q17.11738,12.35216,34.156,24.81342c.625.45442,1.2835.8628,2.4537,1.64511-5.11292-21.76506-10.0885-42.94544-15.0963-64.263C253.86246,31.18751,241.18566,31.538,227.97073,31.42841Zm-67.177,522.04411-.25334.33451c.51088.66914,1.00339,1.35334,1.53542,2.0052q10.00321,12.25705,20.02083,24.50221c8.51925,10.36939,17.08866,20.6976,25.57726,31.092a2.73787,2.73787,0,0,0,2.43782,1.083c4.15515-.024,8.31053-.004,12.46575-.01922a15.435,15.435,0,0,0,1.68158-.19893c-.17669-.7282-.28346-1.26486-.4373-1.7877q-3.17461-10.78945-6.36234-21.575c-2.17646-7.34725-4.39693-14.68178-6.52336-22.04344-.35574-1.23158-.86621-2.00045-2.19773-2.09461a7.586,7.586,0,0,1-1.158-.29619q-18.05864-4.26806-36.11871-8.53014C167.90886,555.10682,164.34989,554.29564,160.79377,553.47252ZM206.24884,43.70661l-.60505.3339q6.29288,28.56617,12.59744,57.18544h36.599c-.27765-.89587-.43535-1.58107-.69738-2.22373-3.648-8.94637-7.33474-17.87708-10.94773-26.83755a8.98344,8.98344,0,0,0-3.19764-4.05767q-15.91934-11.53057-31.79871-23.11631C207.57,44.53355,206.89979,44.13332,206.24884,43.70661ZM318.18161,607.73818c3.90744-1.163,7.70235-2.36842,11.54382-3.40037a3.08371,3.08371,0,0,0,2.49378-2.97785c2.12883-14.05014,4.33869-28.088,6.51012-42.13172.11563-.74771.10292-1.51529.15712-2.38881-.88107-.09826-1.49877-.20766-2.11957-.22957-3.19207-.11326-6.38435-.23209-9.57762-.29754q-14.01869-.28749-28.03828-.5301c-4.17179-.07078-4.67326.68531-2.97123,4.38861q10.406,22.64159,20.8292,45.27539C317.33663,606.158,317.72186,606.84328,318.18161,607.73818ZM361.187,251.80128c.80271-.70295,1.40648-1.1954,1.96969-1.73057q7.9098-7.51619,15.80766-15.045,17.27859-16.45629,34.56313-32.90635a5.57768,5.57768,0,0,0,2.076-3.37373c.27727-2.21889.68449-4.42128.97983-6.63823.183-1.37391.26127-2.7618.42554-4.57378-1.2573.60233-2.12036.96187-2.93256,1.41294q-18.12819,10.06794-36.24375,20.15875-13.71828,7.64172-27.42041,15.31248c-.72776.40742-1.39494.9231-2.20635,1.46616ZM216.88288,101.23767c-.19837-1.26012-.29962-2.20772-.50084-3.13358q-2.5175-11.58331-5.06751-23.15957c-2.22954-10.135-4.48336-20.26461-6.68963-30.40462a6.49436,6.49436,0,0,0-2.8026-4.24761c-3.49031-2.39932-6.93812-4.87194-10.27468-7.47922-2.13227-1.6662-4.3406-1.543-6.85967-1.07672,2.17422,23.24078,4.33525,46.34064,6.502,69.50131Zm117.05767,501.4372c.77833-.19512,1.17636-.25453,1.54456-.39316a190.98549,190.98549,0,0,0,38.9272-19.9677,2.83387,2.83387,0,0,0,1.45512-2.74682c-.18328-4.789-.29856-9.58107-.396-14.37287-.0501-2.46252-.00879-4.92686-.00879-7.521a18.2374,18.2374,0,0,0-2.60871-.46887q-14.73574-.30085-29.47286-.53c-2.24364-.03346-2.33273.11871-2.69048,2.40029q-2.8005,17.86157-5.5989,35.7235C334.70021,597.30545,334.35639,599.82012,333.94055,602.67486ZM330.61913,261.4147c-.80417-.95159-1.26779-1.57406-1.80645-2.12285-1.28719-1.31139-2.60364-2.5943-3.91916-3.87756q-4.71806-4.60248-9.44414-9.19673c-.84138-.82146-1.7649-1.45521-2.99063-1.01714-3.22852,1.15387-6.49046,2.2066-9.32317,4.27088a101.26785,101.26785,0,0,1-50.59494,19.405,44.61517,44.61517,0,0,0-12.1886,3.34447,8.133,8.133,0,0,0-1.37875,1.02519c.98448.57958,1.68782,1.04479,2.43454,1.42482,4.48415,2.28231,9.02323,4.46188,13.44806,6.85324a6.8712,6.8712,0,0,0,5.68646.569q30.28979-9.02826,60.62728-17.89644C324.14895,263.31929,327.12841,262.44234,330.61913,261.4147Zm16.81365,241.525-.42416-.25242c-.624.5608-1.28344,1.08721-1.86662,1.68779q-7.59889,7.82508-15.17458,15.67277-15.504,16.02114-31.00119,32.04879c-.57249.59268-1.03424,1.29234-1.88382,2.36795,1.96239.18275,3.36337.40225,4.76812.43q17.25293.3404,34.507.61605c2.94217.04893,2.97015.00006,3.44531-2.97967.0126-.07887.01705-.159.0293-.23795q3.33365-21.41376,6.66437-42.828C346.83349,507.29391,347.12191,505.115,347.43278,502.93975Zm-274.0167,36.0532c2.96537-34.557,5.90449-68.808,8.865-103.3086-.44279.30583-.64046.36642-.67039.47376Q67.55927,486.57362,53.53715,536.99725a15.06446,15.06446,0,0,0-.29005,1.63178.35906.35906,0,0,0,.05457.2298.62568.62568,0,0,0,.17574.13412ZM444.52673,402.01a17.76221,17.76221,0,0,0-1.61373,1.26331q-10.70244,11.00979-21.37673,22.047c-1.398,1.44759-1.39286,1.56779-.29112,3.27917q12.91874,20.06644,25.86727,40.11363a13.13686,13.13686,0,0,0,1.261,1.37329A166.38407,166.38407,0,0,0,444.52673,402.01Zm-74.04882-47.01141c-13.24365,5.12886-25.98917,10.06479-39.08253,15.13541a102.26234,102.26234,0,0,1,17.85475,20.24607,99.368,99.368,0,0,1,11.4711,23.96115l.55825-.12091C364.32158,394.6345,367.36371,375.04866,370.47791,354.99858ZM294.635,561.39768q-.34554.02812-.69108.05619c-.29722.88336-.61869,1.75945-.88772,2.65131q-2.97624,9.86625-5.93376,19.73824-2.61413,8.72367-5.21329,17.452c-.76506,2.56213-.7667,2.56582,1.605,3.94336,2.97325,1.72693,5.99675,3.37336,8.90742,5.19973a6.787,6.787,0,0,0,5.00713,1.02076c5.66859-.98,11.34275-1.928,17.00956-2.91809a8.3918,8.3918,0,0,0,1.58279-.65262C308.84508,592.28877,301.74006,576.84322,294.635,561.39768Zm76.37215-194.24194-.34187-.038c-.19567.91673-.43655,1.82643-.58028,2.75124q-3.75245,24.15116-7.45374,48.31017a10.92613,10.92613,0,0,0,.12158,3.77291,106.51425,106.51425,0,0,1-1.2027,48.46274,82.55432,82.55432,0,0,1-9.86,22.79376c-.55131.89977-1.29642,1.75717-.87483,3.22629a18.63191,18.63191,0,0,0,1.595-1.29445q5.18559-5.32934,10.33928-10.68964c3.05376-3.16433,6.07819-6.35754,9.16957-9.48457a4.98086,4.98086,0,0,0,1.53519-4.09758c-.13975-1.99216-.20824-3.9907-.2545-5.98772q-.49188-21.2175-.95953-42.4355-.52849-23.97568-1.04124-47.95178C371.14559,372.04743,371.07164,369.60167,371.00719,367.15573ZM213.99731,568.26129l-.55564.38273q6.48475,21.86121,12.95713,43.6807h35.46678C245.63,597.37963,229.81364,582.82043,213.99731,568.26129Zm-5.73073-267.37356c-.38593.0479-.59662.00835-.68323.09413q-13.54195,13.41145-27.06054,26.84643c-2.999,2.98559-5.93725,6.0322-8.8991,9.055a.27534.27534,0,0,0-.03992.21035,1.09482,1.09482,0,0,0,.12224.25146h42.16592Zm223.34811,70.17715c-10.02691-17.48062-23.48643-31.45236-39.59467-43.29056-4.25338,5.85416-8.54795,11.26875-12.45765,16.94106C381.71991,346.50088,429.62276,370.80662,431.61469,371.06487ZM158.925,551.02383c17.27486,4.10039,34.2045,8.12736,51.36167,12.10764.72787-6.89221,1.43123-13.41867,1.89069-20.10773-.93182-.04424-1.557-.09961-2.18219-.09984q-22.51868-.00721-45.03734-.00363c-.31941,0-.64126.02912-.95774-.00059a1.56473,1.56473,0,0,0-1.68957,1.03418C161.25627,546.18334,160.18184,548.4034,158.925,551.02383Zm-47.23748-82.30441c.85283-3.02294.72625-45.95467.24575-47.6332-3.35763-.21624-23.994,1.84881-25.697,2.63625Q98.96977,446.2349,111.68749,468.71941Zm143.61313-185.149c-.52348-.57715-.648-.81688-.84354-.91509q-8.454-4.24608-16.92683-8.45464c-.6423-.31811-1.56215-.46266-1.30611-1.37051.11987-.425.876-.77376,1.41218-.95821,1.45907-.50186,2.99856-.79948,4.18639-2.07653H220.46965c-3.26325,8.81845-6.662,17.615-9.99649,26.98248C225.69668,292.29261,240.35854,287.97281,255.30062,283.57043Zm61.21963-40.26117.04043.58917c.91178.36942,1.8029.80479,2.73855,1.09811,9.43737,2.95882,18.9535,5.68844,28.29284,8.9283,4.30269,1.49262,7.91209.31986,11.72045-1.107-1.0418-3.11156-11.9809-24.57012-13.30447-25.97282C336.21366,232.30879,326.302,237.69343,316.52024,243.30926Zm45.49617,10.74135c.07342.68089.11678,1.07285.15782,1.46508.31318,2.99355.32139,2.96657,3.21677,3.85928,5.94428,1.83278,11.87742,3.70157,17.81786,5.54692,2.3216.72123,2.33095.71549,3.80689-1.168A140.08656,140.08656,0,0,0,404.493,234.68741c.1761-.39139.29525-.80842.64494-1.78069ZM203.00026,31.589c.4534,2.17269.94831,4.0131,1.19739,5.8862a5.96559,5.96559,0,0,0,2.74333,4.25139q15.44636,11.15266,30.82551,22.3984c.61342.44607,1.25616.85181,1.88527,1.27633a3.65354,3.65354,0,0,0-.1461-2.25337c-4.00244-9.83383-8.05118-19.64892-12.01885-29.49669a3.12469,3.12469,0,0,0-3.40792-2.2475c-6.15056.099-12.30368.034-18.45582.04292C204.91913,31.44773,204.21529,31.52067,203.00026,31.589ZM220.49281,570.9583l-.2704.40266c.63489.592,1.26306,1.19139,1.90567,1.7748,6.27047,5.69291,12.57855,11.34492,18.80657,17.08389,7.63922,7.03916,15.20279,14.16041,22.833,21.20947a3.57206,3.57206,0,0,0,2.05939.99732c3.35432.10412,6.71364.034,10.071.057a1.641,1.641,0,0,0,1.79016-1.25338c.483-1.60453.95563-3.21217,1.4441-4.81506a1.53926,1.53926,0,0,0-.832-1.99828c-.56045-.30686-1.10285-.64652-1.65568-.96732q-16.57714-9.61954-33.155-19.23779-10.471-6.07474-20.94508-12.14391C221.872,571.67818,221.17726,571.32715,220.49281,570.9583ZM334.20313,262.48c1.63283,2.39133,25.81362,26.00426,27.36826,26.83948,1.725-.61553,2.1082-1.83624,1.90658-3.58116q-1.30482-11.29315-2.43492-22.60623c-.40339-3.98153-.39606-3.85172-4.125-5.23661a10.86256,10.86256,0,0,0-7.45866-.06287c-4.25323,1.36137-8.56362,2.54382-12.84615,3.81445C335.87443,261.86619,335.15455,262.149,334.20313,262.48ZM245.15241,71.90588l-.474.36288c.229.72106.41005,1.46168.69447,2.16021,3.283,8.06272,6.64784,16.093,9.83174,24.19454a4.31721,4.31721,0,0,0,4.34848,3.1458c5.32784.3766,10.62773,1.1633,15.93355,1.82686,1.48535.18575,2.95166.52363,4.59223.82181.71332-1.91055,1.3725-3.67608,2.08726-5.59042C269.74178,89.7877,257.47178,80.81262,245.15241,71.90588ZM414.3581,204.824l-.52447-.36139-46.35589,44.16023a2.28786,2.28786,0,0,0,1.69351-.23713q17.85858-8.736,35.72221-17.46152a4.40735,4.40735,0,0,0,2.29219-2.573,148.725,148.725,0,0,0,6.14048-19.137C413.68418,207.75426,414.01482,206.28759,414.3581,204.824Zm-79.12058-.52573c-.37453.77892-.54173,1.04581-.637,1.33629a88.72158,88.72158,0,0,1-19.85077,33.50708c-.327.348-.83815.70264-.88169,1.09641a3.34973,3.34973,0,0,0,.34632,1.94741c.1459.2515.97336.16743,1.48271.12543a2.43,2.43,0,0,0,.85477-.41375q13.69964-7.63113,27.3927-15.27413c.59944-.3351,1.13139-.791,1.8438-1.29645C342.27847,218.33114,338.85387,211.5058,335.23752,204.29826ZM390.4764,326.64243a168.07356,168.07356,0,0,0-21.9956-13.23454c.06744,1.31458.06967,2.26125.17147,3.19714.71628,6.58649,1.5559,13.16147,2.15109,19.75866.48155,5.338.03712,4.10739,5.13741,6.95625.06946.03882.14812.06138.21721.10078a1.51714,1.51714,0,0,0,2.25187-.55266c.96788-1.36978,2.00209-2.69253,3.00372-4.03857C384.36627,334.86141,387.31673,330.89168,390.4764,326.64243ZM286.42992,538.96529l7.35246,15.94518c4.75532-3.158,7.892-7.56369,11.678-11.27186,3.81987-3.74127,7.44313-7.68293,11.16334-11.52639q5.5125-5.69514,11.046-11.37006l-.38783-.51873A112.16158,112.16158,0,0,1,286.42992,538.96529Zm116.49536,19.4741c-2.07888-.88166-23.47254-1.2508-25.44873-.56936-.41156,2.65705.1062,19.90137.72023,21.79A175.30061,175.30061,0,0,0,402.92528,558.43939ZM112.19285,396.44174c-.36049.146-.61566.17525-.75784.31743q-11.86325,11.86827-23.70367,23.75936c-.03484.035-.00616.1483.01422.21888a3.045,3.045,0,0,0,.202.37664q11.99442-1.06633,24.24532-2.15543ZM384.32139,267.12021c-1.39148-1.2658-18.40863-6.722-21.58717-6.912.70485,8.56573,1.78453,17.04179,2.70387,26.03174A151.58267,151.58267,0,0,0,384.32139,267.12021Zm-35.753-11.00707.02613-.56587a9.05824,9.05824,0,0,0-1.22877-.5937q-14.06711-4.40771-28.1475-8.77274a5.28815,5.28815,0,0,0-1.50056.05118,5.05272,5.05272,0,0,0,.5606,1.0115q6.38776,6.33854,12.79579,12.65669a2.59339,2.59339,0,0,0,2.86151.57026c3.66917-1.117,7.35952-2.16416,11.03883-3.248C346.177,256.86826,347.37062,256.48377,348.56836,256.11313ZM218.41444,269.7728H207.437c-.3062,2.9025,1.5415,21.313,2.37614,23.10542ZM280.8012,605.8817a21.46912,21.46912,0,0,0-2.01826,6.6815c4.0752-.155,7.83264-.29789,11.59-.44074-.122-.65707-.32376-.87568-.56947-1.01889C286.92252,609.42357,284.03493,607.75482,280.8012,605.8817ZM203.16567,38.26327c-.48018-2.07938-.82988-4.01761-1.42768-5.876-.14424-.44849-1.09314-.85226-1.69992-.89683-1.67-.12267-3.35517-.06506-5.03332-.02956a8.02446,8.02446,0,0,0-1.54824.41635c3.09114,2.23581,5.86485,4.24874,8.653,6.24146C202.27143,38.23435,202.55043,38.18622,203.16567,38.26327ZM157.45011,549.59572c1.19134-2.46545,2.10911-4.36471,3.149-6.51668h-6.82128C155.01634,545.27684,156.08672,547.17627,157.45011,549.59572ZM372.32965,350.185l.53159.1108,3.67605-4.94552a8.35085,8.35085,0,0,0-5.02011-2.47154ZM283.75348,101.5173l-.53194.021c-.39041,1.07933-.78085,2.15867-1.23258,3.40748l4.05284,1.14639Zm76.20841,153.24158-3.97983,1.33617c1.72972.86484,2.84458,1.56076,4.39479,1.08267Zm-48.00882-10.85317-.268-.65369c-1.16024-.4575-1.57181.44758-1.86729,1.6227ZM28.272,33.00784l.58318.10234.36626-1.45611-.599-.14524Z"/>
    <path d="M613.06148,601.18857V383.20737a13.10247,13.10247,0,0,1,1.707-.23575c29.43668-.00677,58.87688-.2831,88.30916.07913,31.16631.38355,55.81055,13.95539,74.33895,38.75707,10.40836,13.93242,16.71434,29.75634,20.35307,46.68475a149.49273,149.49273,0,0,1,2.32354,47.71708c-2.27273,21.0842-8.70416,40.76168-20.67756,58.4049-12.04617,17.75039-28.071,30.48563-48.429,37.54365a92.55349,92.55349,0,0,1-30.65408,4.79285c-28.47686-.02268-56.95383.0348-85.43051-.02484-15.51545-.03246-31.03055-.23807-46.54576-.36861-.47391-.004-.94752-.04178-1.71041-.07729q-11.82524-33.83938-23.66748-67.72717H486.51891q-11.79527,33.754-23.70108,67.8242c-17.97419.12469-35.78446.2482-53.6059.37184.10339-2.10217,79.44328-226.37953,82.67722-233.84988h44.19732q38.20948,109.081,76.43145,218.19738Zm48.88477-37.74768h2.87965c8.95559,0,17.91135.02262,26.86676-.01436,2.55486-.01055,5.11893-.08414,7.66172-.31594,17.7576-1.61883,31.44674-9.94641,40.856-25.11252,5.69883-9.18545,8.75285-19.30506,10.0459-29.98986a117.74345,117.74345,0,0,0,.03539-27.03621,76.73121,76.73121,0,0,0-7.19473-25.71659c-6.30135-12.84829-16.08891-21.6987-29.83717-26.00206a65.98118,65.98118,0,0,0-19.38-2.85208c-9.91465-.06718-19.83012-.02039-29.74523-.012-.69768.00059-1.39523.08449-2.1883.13579ZM656.813,522.93949c-1.278.5608-2.08365.85348-2.83254,1.25256-6.42053,3.42152-12.81615,6.88992-19.2549,10.27664a6.12668,6.12668,0,0,0-3.06838,3.4715c-4.25273,11.29324-8.567,22.56328-12.84738,33.84609a11.10842,11.10842,0,0,0-.64664,2.299c-.26021,1.77709-.00129,2.22451,1.56861,3.06.635.338,1.28877.641,1.9374.95291q18.0457,8.6799,36.09146,17.35975c10.51564,5.06637,21.0102,10.17691,31.54951,15.19354a11.74431,11.74431,0,0,0,4.55449,1.28578,122.39,122.39,0,0,0,19.63131-.806c18.61816-2.53025,34.524-10.61707,48.21258-23.30836,1.50311-1.39359,1.49771-1.451.67617-3.29479q-2.68356-6.02271-5.41705-12.02309-6.18565-13.652-12.389-27.29578c-.33973-.74625-.78861-1.44275-1.30236-2.37129-.59725.72973-.96205,1.13637-1.28408,1.57459-11.68359,15.89924-27.5765,23.60291-47.11922,23.91176-11.91533.18832-23.836.03744-35.75426.02936-.69492-.00047-1.3899-.08736-2.30572-.14883ZM483.4074,421.86129c-.45776,1.15811-.76479,1.87078-1.02425,2.60042q-10.96031,30.82707-21.94714,61.64464a4.23577,4.23577,0,0,0,.53306,4.191q16.6384,25.65853,33.13444,51.4091a3.94272,3.94272,0,0,0,3.83467,2.09965c15.27521-.0798,30.551-.04518,45.82658-.04518h2.72654c.41549,1.12131.73307,1.94016,1.0234,2.76855q1.98149,5.65523,3.94336,11.31744c.26924.78223.52793,1.53328,1.48178,1.68158a8.30756,8.30756,0,0,0,4.821-.24633,17.55362,17.55362,0,0,0-.12293-1.87969c-2.3107-13.463-4.60594-26.92881-6.99732-40.37748a11.26981,11.26981,0,0,0-1.71287-4.40273c-5.14582-7.32867-10.42377-14.56459-15.67412-21.81958a7.75782,7.75782,0,0,0-1.10525-1.03468l-.38209.21445,4.54939,13.47938a4.94687,4.94687,0,0,1-.95525.26332q-21.83335.021-43.66664.01834a2.87473,2.87473,0,0,1-.69949-.13746c-.066-.01711-.12149-.093-.17065-.15146a2.6382,2.6382,0,0,1-.15946-.24551c.2141-.64354.43342-1.32674.668-2.00461,5.01727-14.49621,10.003-29.00353,15.09328-43.474a5.046,5.046,0,0,0-.69721-5.27188c-6.95432-9.47528-13.77135-19.05123-20.64483-28.58593C484.67212,423.30217,484.18324,422.78763,483.4074,421.86129ZM618.3985,387.88822c-.55553,3.26162-.39568,151.95393.159,153.73.57949-.25084,1.16432-.461,1.70912-.74719,2.61768-1.37525,5.18684-2.84906,7.84816-4.13256a6.96045,6.96045,0,0,0,3.67564-4.13373q11.93748-31.6125,24.01582-63.1718a14.63162,14.63162,0,0,0,.99574-5.36651c-.03439-13.19268-.01822-26.3855-.01816-39.57826,0-.93984.00006-1.87969.00006-2.89315l4.20322-.33164c-.76184-1.022-1.27189-1.78854-1.86363-2.4859-2.63777-3.10881-5.3018-6.19529-7.95082-9.29452q-8.57092-10.0274-17.136-20.05975a3.36075,3.36075,0,0,0-2.57707-1.53776C627.15141,387.89265,622.84318,387.88822,618.3985,387.88822Zm131.48127,70.07045a8.95953,8.95953,0,0,0,1.06359-.709q12.78422-12.31611,25.54688-24.65446c1.3343-1.29261,1.303-1.37848.22336-3.04679a90.67451,90.67451,0,0,0-40.327-34.66758,86.53937,86.53937,0,0,0-32.38617-6.93486c-5.01926-.16052-10.04795-.02716-15.23836-.02716-4.22221,11.10445-8.41107,22.12116-12.70113,33.404,1.14035.04978,1.91062.111,2.681.11253,4.55836.00923,9.12117-.11982,13.67391.04a117.12028,117.12028,0,0,1,13.371.97793c11.50131,1.73771,21.75211,6.27926,30.22365,14.44022a58.25621,58.25621,0,0,1,12.76658,18.697C749.09549,456.3099,749.44066,457.01742,749.87977,457.95867ZM548.88363,510.38859l.62162-.30656q-10.46786-61.00453-20.94908-122.08655h-33.1265c-.29578.71977-.62813,1.4407-.89268,2.18575-3.26133,9.18413-6.46931,18.38766-9.80443,27.54486a4.43092,4.43092,0,0,0,.64811,4.63248c7.0623,9.69094,14.04023,19.44331,21.05865,29.16633a20.108,20.108,0,0,0,1.5017,1.60966c1.85859-5.30174,3.59748-10.26176,5.33631-15.22175a6.68879,6.68879,0,0,1,1.32123,2.43727c4.61572,13.36456,9.196,26.74151,13.87494,40.08387a22.852,22.852,0,0,0,2.79334,5.53128c5.28668,7.52112,10.7015,14.95216,16.07572,22.41173C547.83609,509.062,548.369,509.71869,548.88363,510.38859Zm207.355-17.02922c-.10477.83836-.20736,1.37379-.23314,1.91291-.15656,3.27094-.19834,6.55049-.45762,9.81293a79.53445,79.53445,0,0,1-10.37256,34.33213,3.85982,3.85982,0,0,0-.16143,4.01449c2.76375,5.93672,5.41547,11.92541,8.11828,17.89049q4.8956,10.80448,9.81609,21.59766c.33879.742.80531,1.42553,1.2324,2.17078a7.64234,7.64234,0,0,0,.863-.609c.61506-.6276,1.224-1.26229,1.81254-1.91479a103.5079,103.5079,0,0,0,16.11785-23.99977,132.39028,132.39028,0,0,0,12.94143-58.91086c-.03463-1.82268-.07172-1.88074-1.85385-2.09561q-8.07838-.974-16.16361-1.89129-7.72585-.89024-15.45492-1.752C760.41451,493.695,758.37756,493.54939,756.23865,493.35938ZM530.66021,388.19227c.08988.844.13377,1.71015.27979,2.55873q4.44814,25.85795,8.91516,51.71268,6.00917,34.95028,11.97457,69.90814a12.1989,12.1989,0,0,0,2.17266,5.2483q7.03424,9.71306,14.01434,19.46531,6.65306,9.24847,13.319,18.48768c.51932.71678.86121,1.7141,2.24654,1.87494a20.27909,20.27909,0,0,0,.22014-2.14389c-.02455-4.87775.06492-9.76213-.16834-14.63068-.17818-3.71953-.17016-7.43162-1.46291-11.09959q-22.18623-62.94955-44.178-125.9676c-1.66371-4.74979-3.36334-9.48715-4.99963-14.24631C532.60107,388.21866,532.13016,387.491,530.66021,388.19227ZM477.465,559.4874c-1.29-.15715-2.13349-.33656-2.97984-.35145q-18.58342-.32739-37.1676-.60926c-2.5321-.03809-2.53922.00029-3.38918,2.39209q-8.58678,24.1628-17.1636,48.32918c-.284.80062-.49638,1.62668-.836,2.752,14.63645-.15691,28.92524-.31008,43.36521-.46482C465.31928,594.2768,471.31494,577.1032,477.465,559.4874ZM458.908,490.57547c-7.96608,22.43859-15.745,44.35-23.6383,66.58365,1.16142.12557,1.92448.262,2.69057.28219,5.0315.13219,10.0633.258,15.09568.35045,7.67063.14086,15.342.24334,23.01261.3866a2.20593,2.20593,0,0,0,2.48546-1.72025c.55441-1.83322,1.24409-3.62549,1.87775-5.43463.83868-2.39455,1.67909-4.78863,2.568-7.32322h10.15371C481.67411,525.89244,470.4508,508.48178,458.908,490.57547Zm228.76,121.30916.1316-.49734c-.82828-.44842-1.63992-.93141-2.48736-1.3401q-20.61861-9.94271-41.24543-19.8685-11.66326-5.61516-23.33338-11.2159c-.73975-.35426-1.53387-.59508-2.36889-.91383-.492,3.43049-.353,32.03842.133,33.83566Zm67.46525-133.285c2.33561.19948,35.69045-8.01226,37.55186-9.19271-1.02393-9.34957-10.21605-32.73454-14.4685-36.6702-.47326.38525-.99223.74739-1.44088,1.182-8.31879,8.05808-16.61279,16.14185-24.96135,24.16884a2.88834,2.88834,0,0,0-.761,3.38851c1.185,4.05287,2.19018,8.15991,3.195,12.263C754.64291,475.3495,754.84893,477.006,755.13328,478.59967ZM635.26676,387.96914q-.17965.23476-.35918.46954c.61055.79746,1.18828,1.62275,1.83744,2.38746,2.68875,3.16758,5.40047,6.31564,8.10111,9.47312q8.33581,9.74593,16.66758,19.4954c.68039.79644,1.335,1.62826,2.51766,1.63043,3.26666.00595,6.53332.00205,9.70236.00205,1.6159-2.65148,12.49459-31.72169,12.5325-33.458Zm-43.8491,223.60758c-.50631-3.62174-.92824-6.85793-1.41521-10.08428-1.72764-11.44559-3.43629-22.89439-5.26453-34.324-.26613-1.66406.01752-3.54562-1.27-5.04451a6.17842,6.17842,0,0,0-1.19244.27563c-6.25043,2.861-12.48545,5.75584-18.744,8.59893-1.28121.582-1.41275,1.4-1.18289,2.69426,1.71891,9.67559,3.32455,19.37139,5.037,29.04814a54.97958,54.97958,0,0,0,2.87432,8.83582Zm-61.9916-112.91039c-5.01188-14.53433-9.92238-28.78043-14.84121-43.02375-.2584-.74824-.58289-1.47387-.88775-2.20535-.02291-.055-.1333-.08678-.20859-.10248a1.15939,1.15939,0,0,0-.30111.05429c-5.19832,14.98556-10.56416,29.97691-15.6627,45.27729ZM793.2017,471.09185c-1.07414.20906-1.842.32575-2.59318.50968q-11.49794,2.81448-22.99107,5.64835c-3.48539.85761-6.97617,1.69424-10.45154,2.59087-1.69547.43743-1.78061.58251-1.68908,2.31337.09264,1.75333.26771,3.50218.38836,5.25425.1023,1.48708.17859,2.97595.26168,4.38375,3.13459.75316,38.0335,4.94051,39.766,4.21623A130.26851,130.26851,0,0,0,793.2017,471.09185ZM585.49131,562.033a24.05072,24.05072,0,0,0,.01418,2.754c.48674,3.3927,1.02387,6.77824,1.53891,10.16689q2.08406,13.71085,4.16936,27.42146c.41051,2.67785.89391,5.34457,1.3132,8.02113.14461.92326.56988,1.45242,1.55209,1.44984,2.45643-.00633,4.91285-.00211,7.50732-.00211,1.377-3.58764,2.6635-7.09916,4.08076-10.55713a5.69268,5.69268,0,0,0,.0617-4.37209c-3.04406-8.486-5.98389-17.00912-8.99531-25.50686-2.01826-5.69525-.74238-4.28748-6.24246-7.04613C589.01889,563.62365,587.50529,562.96787,585.49131,562.033Zm71.17295-88.30169-.53525-.05317q-11.0722,29.12722-22.13971,58.25631a5.47272,5.47272,0,0,0-.2192.9225c-.011.05771.05924.1408.10875.19752a2.49372,2.49372,0,0,0,.30217.22641c.57486-.24967,1.24482-.48791,1.86568-.8185,6.14039-3.26965,12.24475-6.6085,18.42516-9.80021a3.80361,3.80361,0,0,0,2.35629-3.9184c-.08262-14.31926-.04289-28.63919-.04957-42.95889C656.77822,475.10033,656.704,474.41584,656.66426,473.73132Zm-74.21092,86.18663c-1.16971-2.77336-27.47227-39.194-29.29723-40.54406.14086,1.17141.211,2.08078.364,2.976q1.85643,10.85906,3.73945,21.7135,1.18072,6.84413,2.366,13.6875c.30627,1.74891.53578,1.93207,2.33168,2.06086.23889.01717.4793.01342.719.01887,5.51.125,11.01967.26625,16.53018.35988C580.20223,560.2074,581.20143,560.02881,582.45334,559.91795Zm35.77459,6.89338.50238.05361c3.61066-9.6498,7.403-19.23223,10.73338-29.07568a6.91252,6.91252,0,0,0-2.31861.749c-2.403,1.25971-4.75922,2.61264-7.19437,3.80537a3.0926,3.0926,0,0,0-1.88227,3.22418c.06715,6.5458.02525,13.09266.03393,19.63916C618.10307,565.74182,618.18416,566.27654,618.22793,566.81133Zm-57.96639-5.48443c.50057,2.94445.97793,5.75215,1.46168,8.59764,1.9742.12814,3.32232-1.028,4.84512-1.60963,1.48781-.56824,2.89359-1.34982,4.34162-2.02418,1.52027-.70793,3.08771-1.326,4.56076-2.1201,1.39682-.753,3.17965-.91418,4.19607-2.45473C577.73291,560.932,563.35846,560.62055,560.26154,561.32689Zm25.17791-22.19074c-1.00588,1.79678-.737,17.87561-.02484,20.01832a16.85715,16.85715,0,0,0,5.9523-3.09434C589.37332,550.368,587.40639,544.75213,585.43945,539.13615Zm-28.85678,33.34676c3.2427-.77373,3.47994-1.10326,3.01682-3.75064-.13752-.78621-.25852-1.57559-.41051-2.359-.34465-1.77691-.70383-3.55107-1.06324-5.35682-1.92779.02842-3.6382-.89127-5.46187.252C553.98146,565.039,555.263,568.70648,556.58268,572.48291Zm54.30826,39.32139c-1.11486-3.18182-2.184-6.23279-3.253-9.28377l-.51375.028c-1.14475,2.99725-2.28949,5.99449-3.53514,9.25576Zm-53.77049-37.74457c1.91977,5.48613,3.72475,10.64437,5.52973,15.80262q.25752-.0639.515-.12791c-.962-5.58035-1.924-11.16076-2.94732-17.09725C559.035,573.18041,558.21141,573.55869,557.12045,574.05973Zm29.45256-13.753q-.00255.40192-.00516.80391c2.43621,1.08516,4.68574,2.57918,7.66934,3.44244a37.33709,37.33709,0,0,0-2.57777-7.017C589.84143,558.52635,588.20725,559.41656,586.573,560.30672Z"/>
    <path d="M1017.17719,498.36357c.0525,19.55238-2.15707,36.92619-7.71059,53.80236-4.416,13.41937-10.74164,25.826-19.80481,36.72762a89.83749,89.83749,0,0,1-49.63857,30.82207,113.34565,113.34565,0,0,1-56.96631-.78686c-25.32844-7.02176-44.11312-22.56416-57.00281-45.34576-6.91852-12.22793-11.20494-25.40566-13.88941-39.14648a184.809,184.809,0,0,1-2.7777-45.38394c.98414-18.58752,4.62205-36.61731,12.38373-53.6572,7.23029-15.87325,17.48859-29.35723,31.71281-39.63431a93.11862,93.11862,0,0,1,44.48936-17.11295c15.00111-1.75295,29.88422-1.219,44.49533,2.76677,25.46514,6.9467,44.4283,22.29349,57.423,45.143a129.54551,129.54551,0,0,1,14.363,40.48726A165.088,165.088,0,0,1,1017.17719,498.36357ZM855.93311,600.20139c.79975.64822,1.26205,1.07449,1.77352,1.42992a87.71012,87.71012,0,0,0,36.38285,14.67621,119.35462,119.35462,0,0,0,33.93908.56918,90.91916,90.91916,0,0,0,28.62855-8.31023c16.89814-8.14957,29.64492-20.69982,38.82656-36.9515,10.23457-18.11514,14.85492-37.82285,16.31648-58.393a185.72644,185.72644,0,0,0-.35449-30.1923,148.58678,148.58678,0,0,0-6.925-33.73931c-4.64578-13.876-11.46539-26.54118-21.31734-37.4436-2.45994-2.72218-5.20137-5.19674-7.89082-7.70212-1.482-1.38062-1.55484-1.30327-3.2792-.12981-.19828.13494-.39152.27735-.586.4178q-15.46022,11.16879-30.91646,22.34306c-.68361.49456-1.31479,1.06157-2.18572,1.77015.90873.64573,1.57775,1.04912,2.16387,1.54963a116.67241,116.67241,0,0,1,8.84027,7.7015c6.92508,7.24383,11.281,16.01344,14.31141,25.48383a93.577,93.577,0,0,1,3.97863,20.18959,125.19973,125.19973,0,0,1-.44057,27.05241,83.97466,83.97466,0,0,1-9.34535,30.04213c-4.63746,8.49363-10.73373,15.74684-19.17439,20.66215-15.3416,8.934-31.03816,9.35742-46.94074,1.42318-.626-.31236-1.268-.59256-2.11225-.98514C878.4184,574.48383,867.27586,587.22809,855.93311,600.20139Zm9.046-104.97164a105.27919,105.27919,0,0,0,2.84385,24.90322c2.48783,9.87492,6.39094,19.07684,12.90937,27.04125a42.53115,42.53115,0,0,0,62.5783,4.31074A57.78488,57.78488,0,0,0,957.109,530.37357c4.6667-11.79088,6.16875-24.11373,6.05092-36.67834a97.39591,97.39591,0,0,0-3.61969-26.77169c-2.88357-9.78979-7.23229-18.77361-14.2967-26.29928a42.533,42.533,0,0,0-62.71623.34468,60.55578,60.55578,0,0,0-11.33883,18.50771C866.61492,470.8585,865.0677,482.76416,864.9791,495.22975Zm68.51215-110.59037c-1.11211-.27372-1.71855-.47713-2.34152-.56833a117.53911,117.53911,0,0,0-37.969.33923q-34.2189,6.12343-55.3892,33.7188C827.754,431.26131,821.767,446.24174,818.06895,462.2267a5.96064,5.96064,0,0,0-.00838,1.11817,13.66878,13.66878,0,0,0,1.91162-.18791q23.84868-5.87285,47.694-11.75982a4.31494,4.31494,0,0,0,2.91018-2.24391,58.0341,58.0341,0,0,1,3.692-5.88768c12.6276-17.0335,29.25363-24.11364,50.30719-20.08a9.67527,9.67527,0,0,0,1.58578.01058C928.60365,410.34905,931.02785,397.59706,933.49125,384.63938ZM888.445,561.2373a4.49111,4.49111,0,0,0-.34529-.61693,7.90348,7.90348,0,0,0-.7285-.6099,55.52951,55.52951,0,0,1-17.97451-21.15814,87.32691,87.32691,0,0,1-8.7443-31.20094c-.26-2.64381-.21961-2.63924-2.74734-2.91059-1.82455-.19588-3.64629-.41836-5.46926-.62924q-7.49065-.8666-14.98148-1.73238c-5.15238-.59092-10.30418-1.18834-15.45955-1.75225-2.51561-.27516-5.03883-.48023-7.91578-.75064,0,1.18992-.04793,2.04621.00768,2.89559.44373,6.77461.68865,13.57125,1.41182,20.31639a130.81479,130.81479,0,0,0,9.14742,36.11877c6.10582,14.79381,14.8623,27.70471,27.24053,38.00895.90586.7541,1.8702,1.438,3.063,2.35C866.19457,586.69822,877.31936,573.9682,888.445,561.2373Zm-74.35424-63.13822c2.027,1.03289,43.47533,5.67287,46.11281,5.21883-.24094-8.5701-.26063-17.18309,1.011-25.73388a93.80184,93.80184,0,0,1,7.47381-25.04145c-1.3023.2-2.07252.25808-2.812.44071-15.41795,3.80684-30.82687,7.65023-46.25549,11.41321a3.126,3.126,0,0,0-2.64012,2.87162,182.25313,182.25313,0,0,0-2.88721,28.34124C814.07268,496.47475,814.09072,497.341,814.09072,498.09908Zm132.43113-110.2732c-1.73812,2.6003-15.58863,35.1051-15.81187,37.07063a33.71177,33.71177,0,0,1,4.01936,1.88886c1.60459,1.01115,2.82791.76989,4.31836-.31893,10.447-7.63189,20.9543-15.18105,31.43531-22.76637.6743-.48806,1.28924-1.05817,2.16006-1.77908A88.19242,88.19242,0,0,0,946.52186,387.82588Zm-11.6298-2.95559a12.96684,12.96684,0,0,0-.5257,1.54075q-3.37887,17.60159-6.73213,35.20819a3.819,3.819,0,0,0-.18023,1.40941,1.54971,1.54971,0,0,0,.76922,1.04563,1.4542,1.4542,0,0,0,1.17844-.44481,4.1707,4.1707,0,0,0,.60914-1.28247q7.06271-16.36339,14.11734-32.73018c.27609-.64113.46318-1.32062.77209-2.21522A48.39405,48.39405,0,0,0,934.89205,384.87029Z"/>
    <path class="cls-1" d="M117.38514,538.0009V342.633c1.09452-.05353,2.099-.14525,3.10354-.14558q38.75571-.01187,77.51144-.00633,17.75808,0,35.51618.00407a172.52086,172.52086,0,0,1,36.45245,3.59051c20.69581,4.4925,39.7401,12.61386,56.18013,26.19724,16.17823,13.36705,26.94826,30.1795,31.66831,50.73023a96.05084,96.05084,0,0,1,1.5104,32.19563,82.32713,82.32713,0,0,1-7.73687,27.80924c-9.75873,19.744-24.741,34.1598-44.61475,43.53779a122.78113,122.78113,0,0,1-35.10782,10.13895,147.82819,147.82819,0,0,1-21.28854,1.32469q-64.913-.02584-129.826-.00855Z"/>
    <path class="cls-1" d="M117.41524,264.55989V106.5417c1.05429-.04315,2.0605-.1202,3.06673-.12036q59.029-.00914,118.058.00174c6.5578.00233,13.12289-.08265,19.6718.18554,12.88954.52781,25.371,2.9808,37.1526,8.48177,19.06157,8.90008,31.23255,23.4183,35.91715,44.01405,3.97207,17.46321,3.22063,34.6315-3.78126,51.2719-8.89374,21.13642-24.22447,35.96616-44.9777,45.38156a99.13289,99.13289,0,0,1-41.42855,8.7994q-60.5887.01081-121.17742.00258Z"/>
    <path class="cls-1" d="M205.16527,269.61618c.86232,9.16893,1.704,18.11815,2.58328,27.4677L28.27863,263.097v-2.4656q0-51.4722-.03427-102.94434a4.47428,4.47428,0,0,1,1.82284-3.83843q72.84976-60.43879,145.63108-120.96a4.54082,4.54082,0,0,1,4.12837-1.29865,14.51322,14.51322,0,0,0,2.8234.03114c2.21666,23.169,4.42733,46.27525,6.66623,69.67654H112.49739v168.2191c3.02182.22207,6.10877.06354,9.18489.09311,3.039.02921,6.07845.00636,9.11771.00636l9.35858,0h55.43159C198.69652,269.61621,201.80288,269.61618,205.16527,269.61618Z"/>
    <path class="cls-1" d="M28.27855,265.03418l178.43594,33.79368c-.8649.94286-1.36441,1.5305-1.90819,2.07384q-17.3114,17.29784-34.6089,34.60942a6.16279,6.16279,0,0,1-4.81509,2.01855c-16.63455-.08821-33.26977-.04972-49.90477-.04972h-3.15627v3.00674c0,16.635-.03928,33.27023.05054,49.90477a6.10439,6.10439,0,0,1-2.03894,4.79795c-8.08972,7.97-16.10216,16.01851-24.14438,24.0368-.50391.50244-1.03858.974-1.76189,1.6495-.69452-.70849-1.36153-1.35073-1.98626-2.03183Q58.35672,392.59,34.28108,366.32877c-1.6214-1.76821-3.21053-3.56769-4.87863-5.29066a3.83388,3.83388,0,0,1-1.145-3.00706c.07457-2.23685.0211-4.478.02109-6.7173q0-41.50753,0-83.0151Z"/>
    <path class="cls-1" d="M205.612,612.32244H28.69257c-.51538-1.62041-.65151-108.79178-.04766-111.96123,7.5647,13.70045,14.96092,27.0958,22.41546,40.59674,2.65729,0,5.2855.01371,7.91353-.00316,4.15872-.02666,8.32465-.24322,12.47381-.06322,3.90039.16922,7.79843.63568,11.67056,1.16742,12.03414,1.65258,24.056,3.39486,36.08161,5.10914,12.02492,1.71416,24.04519,3.46184,36.078,5.11881a4.29487,4.29487,0,0,1,2.96522,1.72166q22.89916,28.07561,45.82948,56.1259C204.51057,610.671,204.87409,611.26828,205.612,612.32244Z"/>
    <path class="cls-1" d="M173.67687,32.1041,28.41028,152.77014c-.05731-1.25164-.12661-2.06408-.127-2.87656q-.00975-22.5573-.00478-45.11461c0-21.19739.07128-42.39527-.0692-63.59174-.02378-3.58837,1.87456-6.17446,3.31752-9.05724.18449-.36858.90878-.56981,1.41447-.64991a13.898,13.898,0,0,1,2.15532-.03842q67.67169-.00083,135.34339-.0005h3.04036Z"/>
    <path class="cls-1" d="M347.67858,224.43209c-.45375-.75442-.85365-1.33154-1.16625-1.95261-3.23464-6.42688-6.43386-12.87174-9.69788-19.28363a5.39025,5.39025,0,0,1-.48261-3.87511c4.05539-18.8043,2.93862-37.24705-4.71688-54.99608-6.66378-15.44987-18.27765-26.19573-33.32862-33.37171-2.59365-1.2366-5.30725-2.21977-7.94183-3.37383a4.12585,4.12585,0,0,1-1.92144-1.25668c-1.16027-1.98107-2.11813-4.08067-3.29813-6.42163a19.04308,19.04308,0,0,1,2.16618.01q24.71691,3.3176,49.42992,6.66469,23.99981,3.25329,47.99666,6.52917c6.416.86959,12.8313,1.74943,19.25933,2.52138a3.27663,3.27663,0,0,1,3.00378,2.2245,135.42828,135.42828,0,0,1,10.23211,39.78483,171.251,171.251,0,0,1,.35268,25.16279,4.85666,4.85666,0,0,1-2.81982,4.51928c-14.85592,8.16454-29.65579,16.43115-44.47046,24.67074q-9.53886,5.30528-19.071,10.62261C350.10144,223.22331,348.9627,223.7711,347.67858,224.43209Z"/>
    <path class="cls-1" d="M405.09126,113.95775c-3.62323-.46749-6.70321-.85006-9.77892-1.26437q-17.22344-2.32-34.44454-4.65721-16.8659-2.28323-33.73148-4.56881-14.96575-2.023-29.93294-4.035-5.583-.75149-11.16771-1.491c-1.93333-.25715-1.944-.25229-2.42856-2.31127q-3.84289-16.32944-7.676-32.66117-3.4236-14.58229-6.83839-29.16665c-.10749-.459-.1778-.92665-.29446-1.54393a6.519,6.519,0,0,1,1.388-.22608c37.01675,2.42534,70.75787,13.75475,99.91787,37.19258A124.40559,124.40559,0,0,1,403.919,111.36836C404.2667,112.06911,404.56614,112.79379,405.09126,113.95775Z"/>
    <path class="cls-1" d="M377.28618,556.07162c-.06521-1.21453-.14212-2.16146-.16292-3.10963q-.28679-13.06345-.5584-26.12719-.47136-21.33229-.96085-42.66407c-.0641-2.79565-.08663-5.59588-.27806-8.38374a5.72665,5.72665,0,0,1,1.87509-4.68592q11.57392-11.82542,23.05289-23.74371,8.42326-8.70073,16.8305-17.41693c.43248-.44672.93308-.82752,1.52481-1.34678a11.24889,11.24889,0,0,1,1.14814,1.27392q13.59132,21.04668,27.17435,42.09867a3.93867,3.93867,0,0,1,.55233,3.14388A155.63571,155.63571,0,0,1,429.43559,523.115a176.20594,176.20594,0,0,1-23.049,31.7598,5.5181,5.5181,0,0,1-4.61725,1.95826c-6.94852-.19459-13.90011-.27662-20.84985-.43242C379.74955,556.37455,378.58313,556.19332,377.28618,556.07162Z"/>
    <path class="cls-1" d="M369.13014,339.2c-2.08131-.30533-105.65625-52.93049-108.07594-54.84352.42943-.97336,1.4475-.88289,2.21057-1.10918q20.44815-6.06393,40.917-12.05824c8.583-2.52519,17.18229-4.99772,25.73388-7.62536a3.88791,3.88791,0,0,1,4.44732,1.13862c7.98791,7.958,16.05838,15.83314,24.09258,23.74482.60765.59839,1.14923,1.26384,1.87837,2.072-5.15159,4.29229-10.4736,7.9389-16.12922,11.81385.88374.44071,1.46136.76107,2.06391,1.02431,5.85656,2.55809,11.68816,5.17723,17.59377,7.617a4.10427,4.10427,0,0,1,2.78584,3.9174c.61336,6.60252,1.36143,13.1925,2.05143,19.788C368.85521,336.16714,368.984,337.6575,369.13014,339.2Z"/>
    <path class="cls-1" d="M368.35781,353.75531c-12.94456,5.01519-25.65366,9.93914-38.43565,14.89131a13.28013,13.28013,0,0,1-1.19194-.7725c-16.23076-13.11146-34.78131-21.39891-54.98985-26.0272A208.87082,208.87082,0,0,0,252.94,338.4665c-11.13-1.38729-22.34023-.95039-33.52488-.9861-1.11088-.00354-2.2218-.00047-3.57582-.00047-1.92861-12.503-3.835-24.86232-5.74775-37.26226C212.04768,300.26013,365.609,352.20149,368.35781,353.75531Z"/>
    <path class="cls-1" d="M28.27864,445.38788c18.07087-7.07836,36.04733-14.11975,54.09174-21.18776.09337,1.98557-30.02347,110.69309-31.23433,112.85379-.41578-.65572-.82057-1.22572-1.15637-1.83387q-10.31879-18.68476-20.6341-37.37156a8.10713,8.10713,0,0,1-1.09164-4.08932q.0606-23.03468.0247-46.06957Z"/>
    <path class="cls-1" d="M112.32127,542.91984c1.12283,0,1.9799.00006,2.837.00006,11.27806.00006,22.55662.0535,33.83369-.05232a3.48666,3.48666,0,0,1,3.72262,2.216c.79213,1.7035,1.78714,3.31277,2.94473,5.421-27.01062-3.82775-53.49108-7.58033-80.3078-11.38055,1.52707-18.90486,3.21-37.64654,4.798-56.39543,1.58346-18.6958,3.215-37.38756,4.87241-56.62547a19.424,19.424,0,0,1,1.35686,1.77439q12.47182,22.01555,24.93461,44.03613a7.94854,7.94854,0,0,1,1.02674,4.10106q-.04146,31.91436-.01884,63.82884Z"/>
    <path class="cls-1" d="M214.20045,542.9199c1.23312,0,2.18026.00029,3.1274-.00006,13.03163-.0051,26.06345.03141,39.09483-.02977a126.90957,126.90957,0,0,0,26.61173-3.145c.38672-.08473.78064-.13652,1.42145-.24674.37365.72832.79383,1.46877,1.14334,2.24115,2.40267,5.30994,4.757,10.64221,7.2094,15.92895a4.28646,4.28646,0,0,1-.01356,3.24516q-2.57449,8.73088-5.197,17.44746-3.3322,11.12854-6.68317,22.25127c-.22354.7415-.52459,1.45963-.925,2.56066-22.75608-13.20521-45.24082-26.25293-67.7994-39.34348C212.85782,556.8873,213.51293,550.07221,214.20045,542.9199Z"/>
    <path class="cls-1" d="M212.52595,298.20542c3.04359-.91491,5.70548-1.72772,8.375-2.51484q7.814-2.30405,15.63451-4.58622c6.27564-1.84447,12.57448-3.61594,18.811-5.58448a7.52317,7.52317,0,0,1,6.16453.62479q25.25177,13.02038,50.57827,25.8958,21.78325,11.1161,43.58593,22.19408c3.91547,1.99453,7.80706,4.03646,11.7404,5.99487a3.54394,3.54394,0,0,1,2.27569,3.30542c.12855,2.69077.527,5.36865.81308,8.06918C368.66514,351.5707,216.24806,300.08335,212.52595,298.20542Z"/>
    <path class="cls-1" d="M375.26546,470.46126q-1.26519-56.14748-2.53392-112.45084c1.20173.15961,1.367,1.05287,1.74618,1.6398q17.83046,27.59946,35.6226,55.22361,3.314,5.14024,6.62795,10.28045c1.31467,2.04976,1.31883,2.07141-.386,3.83669Q402.26,443.57229,388.16543,458.14181c-3.50057,3.62282-6.98411,7.26214-10.49074,10.8791-.57864.59687-1.23659,1.11688-1.85789,1.67238Z"/>
    <path class="cls-1" d="M372.97579,353.38271c1.52247-2.04442,3.11977-4.138,4.65741-6.2746.84023-1.16754,1.74322-.794,2.72452-.288q5.53939,2.85623,11.089,5.69279,19.64461,10.04133,39.30492,20.05166a8.18749,8.18749,0,0,1,3.80525,3.77918,145.53971,145.53971,0,0,1,8.88826,21.71446,3.33531,3.33531,0,0,1-.865,3.844c-7.159,7.31452-14.23468,14.71058-21.34714,22.07077-.48577.50271-1.04438.935-1.55147,1.38439C418.208,424.083,374.88606,357.27732,372.97579,353.38271Z"/>
    <path class="cls-1" d="M28.43214,362.79123l54.29013,59.21136c-18.27308,7.1574-36.15621,14.16211-54.29013,21.265Z"/>
    <path class="cls-1" d="M373.48017,476.1145q.89684,39.72731,1.79279,79.415c-2.28384.84316-30.77429.47854-33.911-.45891.30094-2.14471.58063-4.33541.919-6.517q3.58053-23.08878,7.16584-46.1768a9.07464,9.07464,0,0,1,2.58688-5.24338c6.39706-6.49418,12.70641-13.07467,19.05894-19.61279.57633-.59314,1.23334-1.10792,1.85288-1.65911Z"/>
    <path class="cls-1" d="M227.97073,31.42841c13.21493.10956,25.89173-.2409,38.74966.35247,5.0078,21.31758,9.98338,42.498,15.0963,64.263-1.17021-.78231-1.82868-1.19068-2.4537-1.64511q-17.07341-12.41313-34.156-24.81342a10.96006,10.96006,0,0,1-3.908-4.9935c-3.99429-9.934-8.06646-19.83664-12.1003-29.75476C228.81567,33.8953,228.50663,32.92338,227.97073,31.42841Z"/>
    <path class="cls-1" d="M160.79377,553.47252c3.55611.82313,7.11508,1.6343,10.66784,2.47166q18.0613,4.25689,36.11871,8.53014a7.586,7.586,0,0,0,1.158.29619c1.33153.09416,1.842.863,2.19773,2.09461,2.12643,7.36166,4.34689,14.69619,6.52336,22.04344q3.19441,10.78356,6.36234,21.575c.15384.52283.26061,1.05949.4373,1.7877a15.435,15.435,0,0,1-1.68158.19893c-4.15522.01518-8.3106-.0048-12.46575.01922a2.73787,2.73787,0,0,1-2.43782-1.083c-8.48859-10.39436-17.058-20.72256-25.57726-31.092q-10.04306-12.22418-20.02083-24.50221c-.532-.65186-1.02454-1.33605-1.53542-2.0052Z"/>
    <path class="cls-1" d="M206.24884,43.70661c.65095.42671,1.32113.82694,1.95,1.28408Q224.0981,56.549,239.99752,68.107a8.98344,8.98344,0,0,1,3.19764,4.05767c3.613,8.96046,7.29968,17.89118,10.94773,26.83755.262.64266.41974,1.32786.69738,2.22373h-36.599q-6.31042-28.64582-12.59744-57.18544Z"/>
    <path class="cls-1" d="M318.18161,607.73818c-.45976-.8949-.845-1.58016-1.17267-2.292q-10.42159-22.63447-20.8292-45.27539c-1.702-3.7033-1.20056-4.45939,2.97123-4.38861q14.01961.23783,28.03828.5301c3.19327.06545,6.38555.18428,9.57762.29754.6208.02191,1.2385.13131,2.11957.22957-.0542.87352-.04148,1.64109-.15712,2.38881-2.17143,14.04369-4.38129,28.08158-6.51012,42.13172a3.08371,3.08371,0,0,1-2.49378,2.97785C325.884,605.36977,322.08905,606.57516,318.18161,607.73818Z"/>
    <path class="cls-1" d="M361.187,251.80128,348.20575,225.884c.81141-.54306,1.47858-1.05875,2.20635-1.46616q13.70219-7.67063,27.42041-15.31248,18.1154-10.09105,36.24375-20.15875c.8122-.45107,1.67525-.81062,2.93256-1.41294-.16427,1.812-.24249,3.19988-.42554,4.57378-.29534,2.217-.70257,4.41935-.97983,6.63823a5.57768,5.57768,0,0,1-2.076,3.37373q-17.29459,16.43948-34.56313,32.90635-7.90124,7.5252-15.80766,15.045C362.59345,250.60588,361.98967,251.09833,361.187,251.80128Z"/>
    <path class="cls-1" d="M216.88288,101.23767h-25.693c-2.16672-23.16067-4.32775-46.26053-6.502-69.50131,2.51908-.46627,4.7274-.58948,6.85967,1.07672,3.33656,2.60728,6.78437,5.0799,10.27468,7.47922a6.49436,6.49436,0,0,1,2.8026,4.24761c2.20627,10.14,4.4601,20.26966,6.68963,30.40462q2.54674,11.57694,5.06751,23.15957C216.58326,99.02995,216.68451,99.97755,216.88288,101.23767Z"/>
    <path class="cls-1" d="M333.94055,602.67486c.41584-2.85475.75967-5.36941,1.1511-7.87664q2.78895-17.86333,5.5989-35.7235c.35774-2.28158.44684-2.43375,2.69048-2.40029q14.73715.21981,29.47286.53a18.2374,18.2374,0,0,1,2.60871.46887c0,2.59418-.04131,5.05852.00879,7.521.09747,4.7918.21275,9.58383.396,14.37287a2.83387,2.83387,0,0,1-1.45512,2.74682,190.98549,190.98549,0,0,1-38.9272,19.9677C335.1169,602.42033,334.71888,602.47975,333.94055,602.67486Z"/>
    <path class="cls-1" d="M330.61913,261.4147c-3.49072,1.02765-6.47019,1.90459-9.4495,2.78188Q290.85,273.12469,260.54235,282.093a6.8712,6.8712,0,0,1-5.68646-.569c-4.42482-2.39136-8.96391-4.57093-13.44806-6.85324-.74672-.38-1.45006-.84524-2.43454-1.42482a8.133,8.133,0,0,1,1.37875-1.02519,44.61517,44.61517,0,0,1,12.1886-3.34447,101.26785,101.26785,0,0,0,50.59494-19.405c2.83271-2.06429,6.09466-3.117,9.32317-4.27088,1.22572-.43806,2.14925.19569,2.99063,1.01714q4.71617,4.60446,9.44414,9.19673c1.31552,1.28326,2.632,2.56617,3.91916,3.87756C329.35134,259.84063,329.815,260.46311,330.61913,261.4147Z"/>
    <path class="cls-1" d="M347.43278,502.93975c-.31087,2.17529-.5993,4.35416-.93624,6.52535q-3.32358,21.41534-6.66437,42.828c-.01225.07893-.0167.15908-.0293.23795-.47517,2.97973-.50314,3.02859-3.44531,2.97967q-17.2539-.287-34.507-.61605c-1.40476-.02777-2.80573-.24727-4.76812-.43.84958-1.07561,1.31133-1.77527,1.88382-2.36795q15.48866-16.03582,31.00119-32.04879,7.58531-7.83826,15.17458-15.67277c.58318-.60059,1.2426-1.127,1.86662-1.68779Z"/>
    <path class="cls-1" d="M73.41608,538.99295H53.47742a.62568.62568,0,0,1-.17574-.13412.35906.35906,0,0,1-.05457-.2298,15.06446,15.06446,0,0,1,.29005-1.63178Q67.56094,486.574,81.61071,436.15811c.02993-.10734.22759-.16793.67039-.47376C79.32057,470.1849,76.38145,504.43594,73.41608,538.99295Z"/>
    <path class="cls-1" d="M444.52673,402.01a166.38407,166.38407,0,0,1,3.84671,68.07639,13.13686,13.13686,0,0,1-1.261-1.37329q-12.94783-20.04763-25.86727-40.11363c-1.10174-1.71138-1.10684-1.83158.29112-3.27917q10.66619-11.04491,21.37673-22.047A17.76221,17.76221,0,0,1,444.52673,402.01Z"/>
    <path class="cls-1" d="M370.47791,354.99858c-3.1142,20.05008-6.15633,39.63592-9.19843,59.22173l-.55825.12091a99.368,99.368,0,0,0-11.4711-23.96115A102.26234,102.26234,0,0,0,331.39538,370.134C344.48874,365.06338,357.23426,360.12744,370.47791,354.99858Z"/>
    <path class="cls-1" d="M294.635,561.39768c7.105,15.44555,14.21,30.89109,21.386,46.49086a8.3918,8.3918,0,0,1-1.58279.65262c-5.66681.99006-11.341,1.938-17.00956,2.91809a6.787,6.787,0,0,1-5.00713-1.02076c-2.91067-1.82637-5.93417-3.47279-8.90742-5.19973-2.37167-1.37754-2.37-1.38123-1.605-3.94336q2.60574-8.72622,5.21329-17.452,2.95822-9.8717,5.93376-19.73824c.269-.89186.59051-1.76795.88772-2.65131Q294.2895,561.42583,294.635,561.39768Z"/>
    <path class="cls-1" d="M371.00719,367.15573c.06445,2.44594.1384,4.8917.19184,7.33787q.52365,23.97582,1.04124,47.95178.46775,21.218.95953,42.4355c.04626,1.997.11476,3.99557.2545,5.98772a4.98086,4.98086,0,0,1-1.53519,4.09758c-3.09138,3.127-6.11581,6.32024-9.16957,9.48457q-5.16366,5.35061-10.33928,10.68964a18.63191,18.63191,0,0,1-1.595,1.29445c-.42158-1.46912.32353-2.32652.87483-3.22629a82.55432,82.55432,0,0,0,9.86-22.79376,106.51425,106.51425,0,0,0,1.2027-48.46274,10.92613,10.92613,0,0,1-.12158-3.77291q3.671-24.16359,7.45374-48.31017c.14373-.92481.38461-1.83451.58028-2.75124Z"/>
    <path class="cls-1" d="M213.99731,568.26129c15.81633,14.55914,31.63267,29.11834,47.86827,44.06344H226.39879q-6.4662-21.79863-12.95713-43.6807Z"/>
    <path class="cls-1" d="M208.26658,300.88772l5.60537,36.45738H171.706a1.09482,1.09482,0,0,1-.12224-.25146.27534.27534,0,0,1,.03992-.21035c2.96186-3.02282,5.90011-6.06943,8.8991-9.055q13.507-13.44665,27.06054-26.84643C207.67,300.89607,207.88065,300.93563,208.26658,300.88772Z"/>
    <path class="cls-1" d="M431.61469,371.06487c-1.99192-.25825-49.89478-24.564-52.05231-26.34949,3.9097-5.67231,8.20427-11.0869,12.45765-16.94106C408.12826,339.61251,421.58777,353.58425,431.61469,371.06487Z"/>
    <path class="cls-1" d="M158.925,551.02383c1.25687-2.62043,2.3313-4.84049,3.38552-7.07a1.56473,1.56473,0,0,1,1.68957-1.03418c.31648.02971.63834.00059.95774.00059q22.51868-.00026,45.03734.00363c.62521.00023,1.25038.05561,2.18219.09984-.45946,6.68906-1.16282,13.21553-1.89069,20.10773C193.12947,559.15119,176.19983,555.12422,158.925,551.02383Z"/>
    <path class="cls-1" d="M111.68749,468.71941q-12.72167-22.49147-25.45124-44.997c1.703-.78744,22.33937-2.85249,25.697-2.63625C112.41374,422.76475,112.54032,465.69647,111.68749,468.71941Z"/>
    <path class="cls-1" d="M255.30062,283.57043c-14.94208,4.40238-29.60394,8.72218-44.82746,13.2075,3.33451-9.36753,6.73324-18.164,9.99649-26.98248h21.35306c-1.18783,1.27705-2.72732,1.57468-4.18639,2.07653-.53618.18445-1.29231.53326-1.41218.95821-.256.90785.66381,1.0524,1.30611,1.37051q8.47769,4.19854,16.92683,8.45464C254.65266,282.75354,254.77714,282.99328,255.30062,283.57043Z"/>
    <path class="cls-1" d="M316.52024,243.30926c9.78179-5.61583,19.69342-11.00046,29.4878-16.46423,1.32357,1.40271,12.26268,22.86126,13.30447,25.97282-3.80836,1.42685-7.41776,2.5996-11.72045,1.107-9.33935-3.23985-18.85547-5.96947-28.29284-8.9283-.93565-.29332-1.82678-.72869-2.73855-1.09811Z"/>
    <path class="cls-1" d="M362.01642,254.05061l43.12151-21.14389c-.34969.97228-.46884,1.3893-.64494,1.78069a140.08656,140.08656,0,0,1-17.47723,29.06647c-1.47595,1.8835-1.48529,1.88924-3.80689,1.168-5.94044-1.84535-11.87358-3.71414-17.81786-5.54692-2.89538-.89271-2.90358-.86572-3.21677-3.85928C362.13319,255.12346,362.08983,254.73149,362.01642,254.05061Z"/>
    <path class="cls-1" d="M203.00026,31.589c1.215-.06835,1.91887-.14129,2.62282-.14231,6.15214-.00894,12.30526.05613,18.45582-.04292a3.12469,3.12469,0,0,1,3.40792,2.2475c3.96768,9.84777,8.01642,19.66286,12.01885,29.49669a3.65354,3.65354,0,0,1,.1461,2.25337c-.62911-.42451-1.27185-.83025-1.88527-1.27633Q222.35777,52.9202,206.941,41.72662a5.96559,5.96559,0,0,1-2.74333-4.25139C203.94857,35.60212,203.45366,33.76171,203.00026,31.589Z"/>
    <path class="cls-1" d="M220.49281,570.9583c.68445.36885,1.37922.71988,2.05175,1.10936q10.47562,6.06656,20.94508,12.14391,16.57815,9.6177,33.155,19.23779c.55283.3208,1.09523.66047,1.65568.96732a1.53926,1.53926,0,0,1,.832,1.99828c-.48847,1.60289-.96111,3.21053-1.4441,4.81506a1.641,1.641,0,0,1-1.79016,1.25338c-3.35736-.02291-6.71669.04717-10.071-.057a3.57206,3.57206,0,0,1-2.05939-.99732c-7.63025-7.04906-15.19383-14.17031-22.833-21.20947-6.228-5.739-12.5361-11.391-18.80657-17.08389-.64261-.58342-1.27078-1.18277-1.90567-1.7748Z"/>
    <path class="cls-1" d="M334.20313,262.48c.95142-.33094,1.6713-.61377,2.41008-.83294,4.28253-1.27063,8.59292-2.45309,12.84615-3.81445a10.86256,10.86256,0,0,1,7.45866.06287c3.729,1.38489,3.72164,1.25508,4.125,5.23661q1.14583,11.31056,2.43492,22.60623c.20162,1.74492-.18161,2.96563-1.90673,3.58107C360.01676,288.48422,335.836,264.87129,334.20313,262.48Z"/>
    <path class="cls-1" d="M245.15241,71.90588c12.31937,8.90675,24.58937,17.88182,37.0137,26.92167-.71476,1.91435-1.37394,3.67987-2.08726,5.59042-1.64057-.29818-3.10688-.63606-4.59223-.82181-5.30581-.66356-10.6057-1.45025-15.93355-1.82686a4.31721,4.31721,0,0,1-4.34848-3.1458c-3.1839-8.10149-6.54876-16.13182-9.83174-24.19454-.28441-.69853-.46542-1.43914-.69447-2.16021Z"/>
    <path class="cls-1" d="M414.3581,204.824c-.34327,1.4636-.67392,2.93027-1.032,4.39022a148.725,148.725,0,0,1-6.14048,19.137,4.40735,4.40735,0,0,1-2.29219,2.573q-17.87814,8.69577-35.72221,17.46152a2.28786,2.28786,0,0,1-1.69351.23713l46.35589-44.16023Z"/>
    <path class="cls-1" d="M335.23752,204.29826c3.61635,7.20754,7.04095,14.03288,10.55086,21.0283-.71241.50549-1.24436.96135-1.8438,1.29645q-13.68817,7.65167-27.3927,15.27413a2.43,2.43,0,0,1-.85477.41375c-.50936.042-1.33682.12606-1.48271-.12543a3.34973,3.34973,0,0,1-.34632-1.94741c.04354-.39376.55474-.74839.88169-1.09641a88.72158,88.72158,0,0,0,19.85077-33.50708C334.69579,205.34407,334.863,205.07717,335.23752,204.29826Z"/>
    <path class="cls-1" d="M390.4764,326.64243c-3.15967,4.24925-6.11013,8.219-9.06281,12.18706-1.00163,1.346-2.03584,2.6688-3.00372,4.03857a1.51714,1.51714,0,0,1-2.25187.55266c-.06908-.0394-.14774-.062-.21721-.10078-5.10029-2.84886-4.65586-1.61827-5.13741-6.95625-.5952-6.59719-1.43481-13.17217-2.15109-19.75866-.10181-.93589-.104-1.88256-.17147-3.19714A168.07356,168.07356,0,0,1,390.4764,326.64243Z"/>
    <path class="cls-1" d="M286.42992,538.96529a112.16158,112.16158,0,0,0,40.852-18.74186l.38783.51873q-5.52384,5.68424-11.046,11.37006c-3.72021,3.84346-7.34347,7.78512-11.16334,11.52639-3.786,3.70816-6.92271,8.11389-11.678,11.27186Z"/>
    <path class="cls-1" d="M402.92528,558.43939A175.30061,175.30061,0,0,1,378.19679,579.66c-.614-1.88859-1.1318-19.13291-.72023-21.79C379.45274,557.18859,400.84641,557.55773,402.92528,558.43939Z"/>
    <path class="cls-1" d="M112.19285,396.44174v22.51688q-12.25592,1.08958-24.24532,2.15543a3.045,3.045,0,0,1-.202-.37664c-.02038-.07058-.04906-.18393-.01422-.21888q11.8429-11.88861,23.70367-23.75936C111.57719,396.617,111.83236,396.5877,112.19285,396.44174Z"/>
    <path class="cls-1" d="M384.32139,267.12021a151.58267,151.58267,0,0,1-18.8833,19.1197c-.91934-8.99-1.999-17.466-2.70387-26.03174C365.91275,260.39818,382.9299,265.8544,384.32139,267.12021Z"/>
    <path class="cls-1" d="M348.56836,256.11313c-1.19774.37063-2.39139.75513-3.594,1.10936-3.67931,1.08381-7.36966,2.131-11.03883,3.248a2.59339,2.59339,0,0,1-2.86151-.57026q-6.3933-6.333-12.79579-12.65669a5.05272,5.05272,0,0,1-.5606-1.0115,5.28815,5.28815,0,0,1,1.50056-.05118q14.08293,4.35678,28.1475,8.77274a9.05824,9.05824,0,0,1,1.22877.5937Z"/>
    <path class="cls-1" d="M218.41444,269.7728l-8.6013,23.10542c-.83464-1.79238-2.68233-20.20292-2.37614-23.10542Z"/>
    <path class="cls-1" d="M280.8012,605.8817c3.23373,1.87313,6.12132,3.54188,9.00231,5.22188.24571.1432.44748.36182.56947,1.01889-3.75741.14285-7.51485.28576-11.59.44074A21.46912,21.46912,0,0,1,280.8012,605.8817Z"/>
    <path class="cls-1" d="M203.16567,38.26327c-.61523-.07705-.89424-.02892-1.05614-.14463-2.78817-1.99273-5.56188-4.00566-8.653-6.24146a8.02446,8.02446,0,0,1,1.54824-.41635c1.67815-.0355,3.36335-.09311,5.03332.02956.60678.04457,1.55568.44834,1.69992.89683C202.33579,34.24566,202.68549,36.18389,203.16567,38.26327Z"/>
    <path class="cls-1" d="M157.45011,549.59572c-1.36339-2.41945-2.43376-4.31889-3.67228-6.51668h6.82128C159.55922,545.231,158.64145,547.13027,157.45011,549.59572Z"/>
    <path class="cls-1" d="M372.32965,350.185l-.81246-7.30626a8.35085,8.35085,0,0,1,5.02011,2.47154l-3.67605,4.94552Z"/>
    <path class="cls-1" d="M283.75348,101.5173l2.28832,4.5749-4.05284-1.14639c.45173-1.24881.84217-2.32815,1.23258-3.40748Z"/>
    <path class="cls-1" d="M359.96188,254.75889l.415,2.41884c-1.55021.4781-2.66508-.21782-4.39479-1.08267Z"/>
    <path class="cls-1" d="M311.95307,243.90571l-2.1353.969c.29549-1.17511.70705-2.0802,1.86729-1.6227Z"/>
    <path class="cls-1" d="M28.272,33.00784l.35046-1.499.599.14524-.36626,1.45611Z"/>
    <path class="cls-1" d="M661.94625,563.4409V426.52512c.79307-.0513,1.49063-.13521,2.1883-.13579,9.91512-.00844,19.83059-.05522,29.74523.012a65.98118,65.98118,0,0,1,19.38,2.85208c13.74826,4.30336,23.53582,13.15377,29.83717,26.00206a76.73121,76.73121,0,0,1,7.19473,25.71659,117.74345,117.74345,0,0,1-.03539,27.03621c-1.293,10.6848-4.34707,20.80441-10.0459,29.98986-9.40928,15.16611-23.09842,23.49369-40.856,25.11252-2.54279.2318-5.10686.30539-7.66172.31594-8.95541.037-17.91117.01436-26.86676.01436Z"/>
    <path class="cls-1" d="M656.813,522.93949v45.26543c.91582.06146,1.6108.14836,2.30572.14883,11.91826.00809,23.83893.159,35.75426-.02936,19.54271-.30885,35.43562-8.01252,47.11922-23.91176.322-.43822.68684-.84486,1.28408-1.57459.51375.92854.96264,1.625,1.30236,2.37129q6.20912,13.64124,12.389,27.29578,2.72118,6.00583,5.41705,12.02309c.82154,1.84383.82693,1.90119-.67617,3.29479-13.68855,12.69129-29.59441,20.77811-48.21258,23.30836a122.39,122.39,0,0,1-19.63131.806,11.74431,11.74431,0,0,1-4.55449-1.28578c-10.53932-5.01662-21.03387-10.12717-31.54951-15.19354q-18.04008-8.69159-36.09146-17.35975c-.64863-.312-1.30242-.61494-1.9374-.95291-1.5699-.83549-1.82883-1.28291-1.56861-3.06a11.10842,11.10842,0,0,1,.64664-2.299c4.28039-11.28281,8.59465-22.55285,12.84738-33.84609a6.12668,6.12668,0,0,1,3.06838-3.4715c6.43875-3.38672,12.83438-6.85512,19.2549-10.27664C654.72932,523.793,655.535,523.50029,656.813,522.93949Z"/>
    <path class="cls-1" d="M483.4074,421.86129c.77584.92634,1.26472,1.44088,1.676,2.01138,6.87349,9.5347,13.69052,19.11064,20.64483,28.58593a5.046,5.046,0,0,1,.69721,5.27188c-5.09027,14.47049-10.076,28.9778-15.09328,43.474-.23461.67787-.45393,1.36107-.668,2.00461a2.6382,2.6382,0,0,0,.15946.24551c.04916.05842.10465.13436.17065.15146a2.87473,2.87473,0,0,0,.69949.13746q21.83335.00141,43.66664-.01834a4.94687,4.94687,0,0,0,.95525-.26332l-4.54939-13.47938.38209-.21445a7.75782,7.75782,0,0,1,1.10525,1.03468c5.25035,7.255,10.5283,14.49091,15.67412,21.81958a11.26981,11.26981,0,0,1,1.71287,4.40273c2.39139,13.44867,4.68662,26.91445,6.99732,40.37748a17.55362,17.55362,0,0,1,.12293,1.87969,8.30756,8.30756,0,0,1-4.821.24633c-.95385-.1483-1.21254-.89936-1.48178-1.68158q-1.95047-5.666-3.94336-11.31744c-.29033-.8284-.60791-1.64725-1.0234-2.76855h-2.72654c-15.27562,0-30.55137-.03463-45.82658.04518a3.94272,3.94272,0,0,1-3.83467-2.09965q-16.48459-25.75758-33.13444-51.4091a4.23577,4.23577,0,0,1-.53306-4.191q11.03484-30.80039,21.94714-61.64464C482.64261,423.73207,482.94964,423.01939,483.4074,421.86129Z"/>
    <path class="cls-1" d="M618.3985,387.88822c4.44469,0,8.75291.00442,13.06107-.00281a3.36075,3.36075,0,0,1,2.57707,1.53776q8.56705,10.03065,17.136,20.05975c2.649,3.09923,5.313,6.18571,7.95082,9.29452.59174.69735,1.1018,1.46388,1.86363,2.4859l-4.20322.33164c0,1.01347-.00006,1.95331-.00006,2.89315-.00006,13.19276-.01623,26.38559.01816,39.57826a14.63162,14.63162,0,0,1-.99574,5.36651q-12.05666,31.56737-24.01582,63.1718a6.96045,6.96045,0,0,1-3.67564,4.13373c-2.66133,1.2835-5.23049,2.7573-7.84816,4.13256-.5448.28623-1.12963.49635-1.70912.74719C618.00281,539.84215,617.843,391.14984,618.3985,387.88822Z"/>
    <path class="cls-1" d="M749.87977,457.95867c-.4391-.94125-.78428-1.64877-1.10262-2.36815a58.25621,58.25621,0,0,0-12.76658-18.697c-8.47154-8.161-18.72234-12.70251-30.22365-14.44022a117.12028,117.12028,0,0,0-13.371-.97793c-4.55273-.15979-9.11555-.03073-13.67391-.04-.77039-.00155-1.54066-.06275-2.681-.11253,4.29006-11.28287,8.47893-22.29958,12.70113-33.404,5.19041,0,10.2191-.13336,15.23836.02716a86.53937,86.53937,0,0,1,32.38617,6.93486,90.67451,90.67451,0,0,1,40.327,34.66758c1.07965,1.66831,1.11094,1.75418-.22336,3.04679q-12.74941,12.352-25.54687,24.65446A8.95953,8.95953,0,0,1,749.87977,457.95867Z"/>
    <path class="cls-1" d="M548.88363,510.38859c-.51463-.6699-1.04754-1.32662-1.54107-2.01164-5.37422-7.45957-10.789-14.89061-16.07572-22.41173a22.852,22.852,0,0,1-2.79334-5.53128c-4.67895-13.34235-9.25922-26.71931-13.87494-40.08387a6.68879,6.68879,0,0,0-1.32123-2.43727c-1.73883,4.96-3.47771,9.92-5.33631,15.22175a20.108,20.108,0,0,1-1.5017-1.60966c-7.01842-9.723-13.99635-19.47539-21.05865-29.16633a4.43092,4.43092,0,0,1-.64811-4.63248c3.33513-9.15721,6.54311-18.36073,9.80443-27.54486.26455-.745.59689-1.466.89268-2.18575h33.1265Q539.044,449.1162,549.50525,510.082Z"/>
    <path class="cls-1" d="M756.23865,493.35938c2.13891.19,4.17586.33562,6.20449.558q7.7306.84762,15.45492,1.752,8.08339.93146,16.16361,1.89129c1.78213.21486,1.81922.27293,1.85385,2.09561a132.39028,132.39028,0,0,1-12.94143,58.91086A103.5079,103.5079,0,0,1,766.85625,582.567c-.58857.6525-1.19748,1.28719-1.81254,1.91479a7.64234,7.64234,0,0,1-.863.609c-.42709-.74525-.89361-1.42881-1.2324-2.17078q-4.92715-10.79007-9.81609-21.59766c-2.70281-5.96508-5.35453-11.95377-8.11828-17.89049a3.85982,3.85982,0,0,1,.16143-4.01449,79.53445,79.53445,0,0,0,10.37256-34.33213c.25928-3.26244.30105-6.542.45762-9.81293C756.03129,494.73316,756.13389,494.19773,756.23865,493.35938Z"/>
    <path class="cls-1" d="M530.66021,388.19227c1.46994-.70125,1.94086.0264,2.33332,1.16771,1.63629,4.75916,3.33592,9.49652,4.99963,14.24631q22.06494,62.99227,44.178,125.9676c1.29275,3.668,1.28473,7.38006,1.46291,11.09959.23326,4.86855.14379,9.75293.16834,14.63068a20.27909,20.27909,0,0,1-.22014,2.14389c-1.38533-.16084-1.72723-1.15816-2.24654-1.87494q-6.68426-9.226-13.319-18.48768-7.0033-9.73538-14.01434-19.46531a12.1989,12.1989,0,0,1-2.17266-5.2483q-5.94949-34.96052-11.97457-69.90814Q535.40921,416.60533,530.94,390.751C530.794,389.90241,530.7501,389.03625,530.66021,388.19227Z"/>
    <path class="cls-1" d="M477.465,559.4874c-6.15009,17.6158-12.14575,34.78939-18.171,52.04777-14.44.15475-28.72875.30791-43.3652.46482.33964-1.12535.552-1.95141.836-2.752q8.57386-24.16746,17.1636-48.32918c.85-2.3918.85708-2.43018,3.38918-2.39209q18.58421.2794,37.1676.60926C475.33154,559.15084,476.175,559.33025,477.465,559.4874Z"/>
    <path class="cls-1" d="M458.908,490.57547c11.54282,17.90631,22.76613,35.317,34.24544,53.12479H482.99971c-.88887,2.53459-1.72928,4.92867-2.568,7.32322-.63366,1.80914-1.32334,3.60141-1.87775,5.43463a2.20593,2.20593,0,0,1-2.48546,1.72025c-7.6706-.14326-15.342-.24574-23.01261-.3866-5.03238-.09246-10.06418-.21826-15.09568-.35045-.76608-.02016-1.52915-.15662-2.69057-.28219C443.163,534.92543,450.94189,513.01406,458.908,490.57547Z"/>
    <path class="cls-1" d="M687.668,611.88463H618.49758c-.486-1.79725-.625-30.40518-.133-33.83566.835.31875,1.62914.55957,2.36889.91383q11.67425,5.59213,23.33338,11.2159,20.62485,9.92979,41.24543,19.8685c.84744.40869,1.65908.89168,2.48736,1.3401Z"/>
    <path class="cls-1" d="M755.13328,478.59967c-.28436-1.59363-.49037-3.25017-.88482-4.86059-1.00482-4.10309-2.01-8.21013-3.195-12.263a2.88834,2.88834,0,0,1,.761-3.38851c8.34855-8.027,16.64256-16.11076,24.96135-24.16884.44865-.43459.96762-.79673,1.44088-1.182,4.25244,3.93565,13.44457,27.32063,14.4685,36.6702C790.82373,470.58741,757.46889,478.79915,755.13328,478.59967Z"/>
    <path class="cls-1" d="M635.26676,387.96914h50.99947c-.03791,1.73631-10.9166,30.80651-12.5325,33.458-3.169,0-6.4357.0039-9.70236-.00205-1.18266-.00217-1.83727-.834-2.51766-1.63043q-8.33019-9.75085-16.66758-19.4954c-2.70064-3.15747-5.41236-6.30554-8.10111-9.47312-.64916-.76471-1.22689-1.59-1.83744-2.38746Q635.08714,388.20393,635.26676,387.96914Z"/>
    <path class="cls-1" d="M591.41766,611.57672H570.25992a54.97958,54.97958,0,0,1-2.87432-8.83582c-1.71246-9.67676-3.31811-19.37256-5.037-29.04814-.22986-1.29422-.09832-2.1123,1.18289-2.69426,6.25852-2.84309,12.49354-5.738,18.744-8.59893a6.17842,6.17842,0,0,1,1.19244-.27563c1.28754,1.49889,1.00389,3.38045,1.27,5.04451,1.82824,11.42959,3.53689,22.8784,5.26453,34.324C590.48941,604.71879,590.91135,607.955,591.41766,611.57672Z"/>
    <path class="cls-1" d="M529.42605,498.66633H497.52469c5.09854-15.30038,10.46437-30.29174,15.6627-45.27729a1.15939,1.15939,0,0,1,.30111-.05429c.07529.0157.18568.04746.20859.10248.30486.73148.62936,1.45711.88775,2.20535C519.50367,469.8859,524.41418,484.132,529.42605,498.66633Z"/>
    <path class="cls-1" d="M793.2017,471.09185a130.26851,130.26851,0,0,1,2.69115,24.91649c-1.7325.72428-36.63141-3.46307-39.766-4.21623-.08309-1.4078-.15938-2.89667-.26168-4.38375-.12064-1.75207-.29572-3.50092-.38836-5.25425-.09152-1.73086-.00639-1.87594,1.68908-2.31337,3.47537-.89663,6.96615-1.73326,10.45154-2.59087q11.49451-2.82841,22.99107-5.64835C791.35975,471.4176,792.12756,471.30091,793.2017,471.09185Z"/>
    <path class="cls-1" d="M585.49131,562.033c2.014.93486,3.52758,1.59064,4.99975,2.329,5.50008,2.75865,4.2242,1.35088,6.24246,7.04613,3.01143,8.49773,5.95125,17.0209,8.99531,25.50686a5.69268,5.69268,0,0,1-.0617,4.37209c-1.41727,3.458-2.70375,6.96949-4.08076,10.55713-2.59447,0-5.0509-.00422-7.50732.00211-.98221.00258-1.40748-.52658-1.55209-1.44984-.4193-2.67656-.9027-5.34328-1.3132-8.02113q-2.101-13.70821-4.16936-27.42146c-.515-3.38865-1.05217-6.7742-1.53891-10.16689A24.05072,24.05072,0,0,1,585.49131,562.033Z"/>
    <path class="cls-1" d="M656.66426,473.73132c.03979.68452.114,1.369.11432,2.05356.00668,14.3197-.033,28.63963.04957,42.95889a3.80361,3.80361,0,0,1-2.35629,3.9184c-6.18041,3.19172-12.28477,6.53057-18.42516,9.80021-.62086.33059-1.29082.56883-1.86568.8185a2.49372,2.49372,0,0,1-.30217-.22641c-.04951-.05672-.11977-.1398-.10875-.19752a5.47272,5.47272,0,0,1,.2192-.9225q11.06446-29.13021,22.13971-58.25631Z"/>
    <path class="cls-1" d="M582.45334,559.91795c-1.25191.11086-2.25111.28945-3.247.27252-5.51051-.09363-11.0202-.23484-16.53018-.35988-.23971-.00545-.48012-.0017-.719-.01887-1.7959-.12879-2.02541-.312-2.33168-2.06086q-1.19821-6.84105-2.366-13.6875-1.87295-10.85625-3.73945-21.7135c-.153-.8952-.22312-1.80457-.364-2.976C554.98107,520.72395,581.28363,557.14459,582.45334,559.91795Z"/>
    <path class="cls-1" d="M618.22793,566.81133c-.04377-.53479-.12486-1.06951-.12557-1.60436-.00867-6.5465.03322-13.09336-.03393-19.63916a3.0926,3.0926,0,0,1,1.88227-3.22418c2.43516-1.19273,4.79139-2.54566,7.19437-3.80537a6.91252,6.91252,0,0,1,2.31861-.749c-3.33035,9.84346-7.12271,19.42588-10.73338,29.07568Z"/>
    <path class="cls-1" d="M560.26154,561.32689c3.09691-.70635,17.47137-.39492,19.40525.389-1.01643,1.54055-2.79926,1.70168-4.19607,2.45473-1.473.79412-3.04049,1.41217-4.56076,2.1201-1.448.67436-2.85381,1.45594-4.34162,2.02418-1.52279.58166-2.87092,1.73777-4.84512,1.60963C561.23947,567.079,560.76211,564.27135,560.26154,561.32689Z"/>
    <path class="cls-1" d="M585.43945,539.13615c1.96693,5.616,3.93387,11.23189,5.92746,16.924a16.85715,16.85715,0,0,1-5.9523,3.09434C584.70246,557.01176,584.43357,540.93293,585.43945,539.13615Z"/>
    <path class="cls-1" d="M556.58268,572.48291c-1.31965-3.77643-2.60121-7.44393-3.91881-11.21443,1.82367-1.14328,3.53408-.22359,5.46187-.252.35941,1.80574.71859,3.5799,1.06324,5.35682.152.7834.273,1.57277.41051,2.359C560.06262,571.37965,559.82537,571.70918,556.58268,572.48291Z"/>
    <path class="cls-1" d="M610.89094,611.8043H603.589c1.24564-3.26127,2.39039-6.25852,3.53514-9.25576l.51375-.028C608.707,605.5715,609.77607,608.62248,610.89094,611.8043Z"/>
    <path class="cls-1" d="M557.12045,574.05973c1.091-.501,1.91455-.87932,3.09738-1.42254,1.02334,5.93648,1.98533,11.51689,2.94732,17.09725q-.25752.064-.515.12791C560.8452,584.7041,559.04021,579.54586,557.12045,574.05973Z"/>
    <path class="cls-1" d="M586.573,560.30672c1.63424-.89016,3.26842-1.78037,5.08641-2.77061a37.33709,37.33709,0,0,1,2.57777,7.017c-2.98359-.86326-5.23312-2.35729-7.66934-3.44244Q586.57049,560.7087,586.573,560.30672Z"/>
    <path class="cls-1" d="M855.93311,600.20139c11.34275-12.9733,22.48529-25.71756,33.69293-38.53629.84422.39258,1.48623.67277,2.11225.98514,15.90258,7.93424,31.59914,7.51084,46.94074-1.42318,8.44066-4.91531,14.53693-12.16852,19.17439-20.66215a83.97466,83.97466,0,0,0,9.34535-30.04213,125.19973,125.19973,0,0,0,.44057-27.05241,93.577,93.577,0,0,0-3.97863-20.18959c-3.03041-9.47039-7.38633-18.24-14.31141-25.48383a116.67241,116.67241,0,0,0-8.84027-7.7015c-.58611-.50051-1.25514-.9039-2.16387-1.54963.87094-.70857,1.50211-1.27559,2.18572-1.77015q15.45205-11.18,30.91646-22.34306c.19447-.14045.38771-.28286.586-.4178,1.72436-1.17346,1.79719-1.2508,3.2792.12981,2.68945,2.50538,5.43088,4.97994,7.89082,7.70212,9.852,10.90242,16.67156,23.56761,21.31734,37.4436a148.58678,148.58678,0,0,1,6.925,33.73931,185.72644,185.72644,0,0,1,.35449,30.1923c-1.46156,20.57016-6.08191,40.27787-16.31648,58.393-9.18164,16.25168-21.92842,28.80193-38.82656,36.9515a90.91916,90.91916,0,0,1-28.62855,8.31023,119.35462,119.35462,0,0,1-33.93908-.56918,87.71012,87.71012,0,0,1-36.38285-14.67621C857.19516,601.27588,856.73285,600.84961,855.93311,600.20139Z"/>
    <path class="cls-1" d="M864.9791,495.22975c.08859-12.46559,1.63582-24.37125,6.20936-35.75309a60.55578,60.55578,0,0,1,11.33883-18.50771,42.533,42.533,0,0,1,62.71623-.34468c7.06441,7.52566,11.41312,16.50949,14.2967,26.29928a97.39591,97.39591,0,0,1,3.61969,26.77169c.11783,12.56461-1.38422,24.88746-6.05092,36.67834A57.78488,57.78488,0,0,1,943.31063,551.485a42.53115,42.53115,0,0,1-62.5783-4.31074c-6.51844-7.96441-10.42154-17.16633-12.90937-27.04125A105.27919,105.27919,0,0,1,864.9791,495.22975Z"/>
    <path class="cls-1" d="M933.49125,384.63938c-2.4634,12.95769-4.8876,25.70968-7.33,38.55677a9.67527,9.67527,0,0,1-1.58578-.01058c-21.05355-4.03365-37.67959,3.04649-50.30719,20.08a58.0341,58.0341,0,0,0-3.692,5.88768,4.31494,4.31494,0,0,1-2.91018,2.24391q-23.853,5.85554-47.694,11.75982a13.66878,13.66878,0,0,1-1.91162.18791,5.96064,5.96064,0,0,1,.00838-1.11817c3.698-15.985,9.68508-30.96539,19.72254-44.09763q21.1108-27.61989,55.3892-33.7188a117.53911,117.53911,0,0,1,37.969-.33923C931.7727,384.16225,932.37914,384.36565,933.49125,384.63938Z"/>
    <path class="cls-1" d="M888.445,561.2373c-11.12561,12.7309-22.25039,25.46092-33.49559,38.32869-1.19279-.912-2.15713-1.59592-3.063-2.35-12.37822-10.30424-21.13471-23.21514-27.24053-38.00895a130.81479,130.81479,0,0,1-9.14742-36.11877c-.72316-6.74514-.96809-13.54178-1.41182-20.31639-.05561-.84938-.00768-1.70566-.00768-2.89559,2.877.27041,5.40018.47549,7.91578.75064,5.15537.56391,10.30717,1.16133,15.45955,1.75225q7.49153.85913,14.98148,1.73238c1.823.21088,3.64471.43336,5.46926.62924,2.52773.27135,2.48736.26678,2.74734,2.91059a87.32691,87.32691,0,0,0,8.7443,31.20094,55.52951,55.52951,0,0,0,17.97451,21.15814,7.90348,7.90348,0,0,1,.7285.6099A4.49111,4.49111,0,0,1,888.445,561.2373Z"/>
    <path class="cls-1" d="M814.09072,498.09908c0-.75809-.018-1.62434.00275-2.48971a182.25313,182.25313,0,0,1,2.88721-28.34124,3.126,3.126,0,0,1,2.64012-2.87162c15.42861-3.763,30.83754-7.60638,46.25549-11.41321.73951-.18264,1.50973-.24073,2.812-.44071a93.80184,93.80184,0,0,0-7.47381,25.04145c-1.2716,8.55079-1.25191,17.16378-1.011,25.73388C857.56605,503.772,816.11771,499.132,814.09072,498.09908Z"/>
    <path class="cls-1" d="M946.52186,387.82588A88.19242,88.19242,0,0,1,972.64307,401.921c-.87082.72091-1.48576,1.291-2.16006,1.77908-10.481,7.58531-20.98834,15.13447-31.43531,22.76637-1.49045,1.08882-2.71377,1.33008-4.31836.31893A33.71177,33.71177,0,0,0,930.71,424.8965C930.93322,422.931,944.78373,390.42618,946.52186,387.82588Z"/>
    <path class="cls-1" d="M934.89205,384.87029a48.39405,48.39405,0,0,1,10.00816,2.53131c-.30891.89461-.496,1.57409-.77209,2.21522q-7.04865,16.36937-14.11734,32.73018a4.1707,4.1707,0,0,1-.60914,1.28247,1.4542,1.4542,0,0,1-1.17844.44481,1.54971,1.54971,0,0,1-.76922-1.04563,3.819,3.819,0,0,1,.18023-1.40941q3.35856-17.60555,6.73213-35.20819A12.96684,12.96684,0,0,1,934.89205,384.87029Z"/>
  </g>
</svg>
