<?xml version="1.0" encoding="UTF-8"?>
<svg width="363px" height="363px" viewBox="0 0 363 363" version="1.1" xmlns="http://www.w3.org/2000/svg" xmlns:xlink="http://www.w3.org/1999/xlink">
    <!-- Generator: Sketch 42 (36781) - http://www.bohemiancoding.com/sketch -->
    <title>IMDB</title>
    <desc>Created with Sketch.</desc>
    <defs>
        <polygon id="path-1" points="0.06 363 0.06 0.57 362.414 0.57 362.414 363"></polygon>
    </defs>
    <g id="Page-1" stroke="none" stroke-width="1" fill="none" fill-rule="evenodd">
        <g id="IMDB">
            <g id="Group-3">
                <mask id="mask-2" fill="white">
                    <use xlink:href="#path-1"></use>
                </mask>
                <g id="Clip-2"></g>
                <path d="M337.93,0.57 L24.484,0.57 C11.18,1.453 0.875,11.804 0.016,24.664 L0,338.515 C0.891,351.742 10.766,361.812 23.5,362.961 C23.727,362.992 23.953,363 24.18,363 L338.242,363 C338.461,363 338.68,362.992 338.906,362.968 C352.086,361.812 362.414,350.484 362.414,337.172 L362.414,26.39 C362.414,12.929 351.906,1.601 338.492,0.601 C338.305,0.586 338.125,0.57 337.93,0.57" id="Fill-1" fill="#E5B922" mask="url(#mask-2)"></path>
            </g>
            <polygon id="Fill-4" fill="#010101" points="43.633 236.515 72.406 236.515 72.406 125.312 43.633 125.312"></polygon>
            <path d="M133.641,125.312 L126.992,177.336 L122.891,149.07 C121.664,139.953 120.539,132.07 119.406,125.312 L82.141,125.312 L82.141,236.515 L107.328,236.515 L107.43,163.093 L117.977,236.515 L135.898,236.515 L146.031,161.453 L146.031,236.515 L171.125,236.515 L171.125,125.312 L133.641,125.312" id="Fill-5" fill="#010101"></path>
            <path d="M216.086,145.383 C217.203,145.992 217.922,147.015 218.227,148.453 C218.641,149.89 218.742,153.164 218.742,158.179 L218.742,201.289 C218.742,208.664 218.227,213.172 217.305,214.812 C216.383,216.554 213.82,217.375 209.727,217.375 L209.727,144.351 C212.805,144.351 214.945,144.664 216.086,145.383 Z M215.766,236.515 C222.625,236.515 227.852,236.109 231.234,235.39 C234.711,234.672 237.586,233.343 239.836,231.39 C242.18,229.554 243.82,226.89 244.742,223.515 C245.664,220.133 246.281,213.468 246.281,203.539 L246.281,164.531 C246.281,153.984 245.875,146.914 245.164,143.336 C244.547,139.75 243,136.468 240.445,133.609 C237.883,130.633 234.102,128.593 229.18,127.25 C224.367,126.031 216.281,125.312 202.461,125.312 L180.953,125.312 L180.953,236.515 L215.766,236.515 L215.766,236.515 Z" id="Fill-6" fill="#010101"></path>
            <path d="M293.383,209.593 C293.383,214.914 293.086,218.289 292.563,219.718 C292.063,221.156 289.703,221.875 287.961,221.875 C286.32,221.875 285.094,221.156 284.586,219.836 C283.961,218.492 283.664,215.32 283.664,210.414 L283.664,181.015 C283.664,175.992 283.961,172.82 284.484,171.593 C284.992,170.375 286.125,169.75 287.766,169.75 C289.5,169.75 291.852,170.375 292.461,171.906 C293.086,173.336 293.383,176.414 293.383,181.015 L293.383,209.593 Z M256.016,125.312 L256.016,236.515 L281.922,236.515 L283.664,229.453 C286.016,232.312 288.57,234.468 291.445,235.906 C294.203,237.234 298.406,237.953 301.68,237.953 C306.281,237.953 310.18,236.82 313.461,234.375 C316.734,232.015 318.883,229.14 319.805,225.875 C320.625,222.593 321.141,217.672 321.141,211.015 L321.141,179.789 C321.141,173.133 320.93,168.734 320.625,166.679 C320.32,164.633 319.5,162.484 318.063,160.336 C316.523,158.179 314.383,156.539 311.617,155.312 C308.844,154.195 305.57,153.57 301.68,153.57 C298.406,153.57 294.203,154.289 291.344,155.515 C288.57,156.851 286.016,158.89 283.664,161.562 L283.664,125.312 L256.016,125.312 L256.016,125.312 Z" id="Fill-7" fill="#010101"></path>
        </g>
    </g>
</svg>