<svg xmlns="http://www.w3.org/2000/svg" viewBox="0 0 80 79.99994">
  <defs>
    <style>
      .cls-1 {
        fill: #fff;
      }
    </style>
  </defs>
  <title>linkedin icon</title>
  <g id="Objects">
    <path class="cls-1" d="M40.00006,0A40,40,0,1,0,80,40,40,40,0,0,0,40.00006,0ZM29.78532,60.0226H21.05626V31.82235h8.72905ZM25.37878,28.12973a5.20393,5.20393,0,1,1,5.1615-5.20477A5.18393,5.18393,0,0,1,25.37878,28.12973ZM62.49784,60.0226H53.8096V45.21936c0-4.05948-1.54234-6.32636-4.75173-6.32636-3.49433,0-5.319,2.36176-5.319,6.32636V60.0226H35.36559V31.82235h8.37329v3.79854a9.833,9.833,0,0,1,8.49836-4.65919c5.979,0,10.26059,3.65181,10.26059,11.2055Z"/>
  </g>
</svg>
