<svg xmlns="http://www.w3.org/2000/svg" viewBox="0 0 81.3623 81.36218">
  <defs>
    <style>
      .cls-1 {
        fill: #fff;
      }
    </style>
  </defs>
  <title>87138-OI4DWV-334</title>
  <g id="Objects">
    <path class="cls-1" d="M40.68115,0A40.68109,40.68109,0,1,0,81.3623,40.68109,40.68113,40.68113,0,0,0,40.68115,0ZM61.89429,33.35748c.59241,13.19073-9.24414,27.89716-26.65552,27.89716a26.54417,26.54417,0,0,1-14.37524-4.21405,18.84758,18.84758,0,0,0,13.88379-3.88275A9.38325,9.38325,0,0,1,25.988,46.64459a9.385,9.385,0,0,0,4.23376-.16,9.38874,9.38874,0,0,1-7.52209-9.31451A9.34243,9.34243,0,0,0,26.949,38.34369,9.38892,9.38892,0,0,1,24.04663,25.8222,26.61448,26.61448,0,0,0,43.37524,35.6214a9.38416,9.38416,0,0,1,15.981-8.55328,18.79715,18.79715,0,0,0,5.95386-2.277,9.39414,9.39414,0,0,1-4.12207,5.188,18.7397,18.7397,0,0,0,5.3855-1.47626A19.00915,19.00915,0,0,1,61.89429,33.35748Z"/>
  </g>
</svg>
