<?xml version="1.0" encoding="UTF-8"?>
<svg width="87px" height="87px" viewBox="0 0 87 87" version="1.1" xmlns="http://www.w3.org/2000/svg" xmlns:xlink="http://www.w3.org/1999/xlink">
    <!-- Generator: Sketch 42 (36781) - http://www.bohemiancoding.com/sketch -->
    <title>videoplay</title>
    <desc>Created with Sketch.</desc>
    <defs></defs>
    <g id="Page-1" stroke="none" stroke-width="1" fill="none" fill-rule="evenodd">
        <g id="Web-Copy-7" transform="translate(-1113.000000, -3619.000000)" fill-rule="nonzero" fill="#FFFFFF">
            <g id="Videos-Copy" transform="translate(143.000000, 3250.000000)">
                <g id="videoplay" transform="translate(1013.500000, 412.500000) scale(-1, 1) translate(-1013.500000, -412.500000) translate(970.000000, 369.000000)">
                    <path d="M43.432588,0.859936115 C19.8946848,0.859936115 0.81356305,19.9378514 0.81356305,43.4717992 C0.81356305,67.0067366 19.8946848,86.0846519 43.432588,86.0846519 C66.9695015,86.0846519 86.0506232,67.0067366 86.0506232,43.4717992 C86.0496334,19.9378514 66.9695015,0.859936115 43.432588,0.859936115 Z M43.432588,83.8541617 C21.1259164,83.8541617 3.04442815,65.7747223 3.04442815,43.4708096 C3.04442815,21.1688761 21.1269062,3.08943677 43.432588,3.08943677 C65.7382698,3.08943677 83.8207478,21.1688761 83.8207478,43.4708096 C83.8197581,65.7757119 65.7382698,83.8541617 43.432588,83.8541617 Z" id="Shape"></path>
                    <path d="M43.4306085,9.60674316 C24.7245968,9.60674316 9.5598607,24.7679413 9.5598607,43.4727888 C9.5598607,62.1766467 24.7245968,77.3368553 43.4306085,77.3368553 C62.13761,77.3368553 77.3033358,62.1766467 77.3033358,43.4727888 C77.302346,24.7689309 62.13761,9.60674316 43.4306085,9.60674316 Z M46.4017962,52.5530808 L30.7016129,61.5769674 L30.7362537,43.4737784 L30.7699047,25.3686102 L46.4354472,34.4489022 L62.1009897,43.5311734 L46.4017962,52.5530808 Z" id="Shape" transform="translate(43.431598, 43.471799) scale(-1, 1) translate(-43.431598, -43.471799) "></path>
                </g>
            </g>
        </g>
    </g>
</svg>