<?xml version="1.0" encoding="UTF-8"?>
<svg width="55px" height="40px" viewBox="0 0 55 40" version="1.1" xmlns="http://www.w3.org/2000/svg" xmlns:xlink="http://www.w3.org/1999/xlink">
    <!-- Generator: Sketch 42 (36781) - http://www.bohemiancoding.com/sketch -->
    <title>Service_Video Icon</title>
    <desc>Created with Sketch.</desc>
    <defs></defs>
    <g id="Page-1" stroke="none" stroke-width="1" fill="none" fill-rule="evenodd">
        <g id="Web-Copy-3" transform="translate(-394.000000, -1931.000000)" fill-rule="nonzero" fill="#FFFFFF">
            <g id="Formats" transform="translate(323.000000, 1230.000000)">
                <g id="Service_Video-Icon" transform="translate(71.000000, 701.000000)">
                    <path d="M-1.46341522e-06,0.353317073 L-1.46341522e-06,1.00372304 L-1.46341522e-06,29.6216179 L-1.46341522e-06,30.2720238 L0.650404499,30.2720238 L53.9836957,30.2720238 L54.6341016,30.2720238 L54.6341016,29.6216179 L54.6341016,1.00372304 L54.6341016,0.353317073 L53.9836957,0.353317073 L0.650404499,0.353317073 L-1.46341522e-06,0.353317073 Z M1.30081046,1.654129 L53.3332897,1.654129 L53.3332897,28.9712119 L1.30081046,28.9712119 L1.30081046,1.654129 Z M11.7073055,34.1744596 C10.4954756,34.1744596 9.49652363,35.0041825 9.20730761,36.1256775 L3.25202802,36.1256775 C2.89282182,36.1256775 2.60162206,36.4168643 2.60162206,36.7760835 C2.60162206,37.1353027 2.89282182,37.4264894 3.25202802,37.4264894 L9.20730761,37.4264894 C9.49652363,38.5479844 10.4954756,39.3777073 11.7073055,39.3777073 C12.9191354,39.3777073 13.9180874,38.5479844 14.2073034,37.4264894 L51.3820712,37.4264894 C51.7412774,37.4264894 52.0324771,37.1353027 52.0324771,36.7760835 C52.0324771,36.4168643 51.7412774,36.1256775 51.3820712,36.1256775 L14.2073034,36.1256775 C13.9180874,35.0041825 12.9191354,34.1744596 11.7073055,34.1744596 L11.7073055,34.1744596 Z" id="Shape"></path>
                </g>
            </g>
        </g>
    </g>
</svg>