<svg xmlns="http://www.w3.org/2000/svg" viewBox="0 0 81.36218 81.36224">
  <defs>
    <style>
      .cls-1 {
        fill: #fff;
      }
    </style>
  </defs>
  <title>vimeo icon</title>
  <g id="Objects">
    <path class="cls-1" d="M40.68115,0a40.68112,40.68112,0,1,0,40.681,40.68115A40.68106,40.68106,0,0,0,40.68115,0ZM63.3938,31.53162q-.32556,7.1076-9.922,19.46033Q43.5473,63.894,36.68115,63.89294q-4.25464,0-7.19531-7.85565Q27.52148,48.831,25.557,41.63141q-2.18463-7.85458-4.68787-7.86-.54309,0-3.817,2.29449L14.762,33.11554q3.60315-3.16544,7.101-6.33551,4.80414-4.14917,7.21057-4.36981,5.67957-.54611,6.99133,7.76788Q37.483,39.14825,38.03259,41.333q1.6355,7.44315,3.60413,7.43884,1.5271,0,4.58716-4.826,3.05676-4.8306,3.275-7.34888.43781-4.16913-3.275-4.17249a9.098,9.098,0,0,0-3.60205.79858q3.59-11.75381,13.704-11.4248Q63.82471,22.02206,63.3938,31.53162Z"/>
  </g>
</svg>
