<?xml version="1.0" encoding="UTF-8"?>
<svg width="56px" height="32px" viewBox="0 0 56 32" version="1.1" xmlns="http://www.w3.org/2000/svg" xmlns:xlink="http://www.w3.org/1999/xlink">
    <!-- Generator: Sketch 42 (36781) - http://www.bohemiancoding.com/sketch -->
    <title>Service_VR Icon</title>
    <desc>Created with Sketch.</desc>
    <defs></defs>
    <g id="Page-1" stroke="none" stroke-width="1" fill="none" fill-rule="evenodd">
        <g id="Web-Copy-3" transform="translate(-391.000000, -2183.000000)" stroke="#FFFFFF">
            <g id="Formats" transform="translate(323.000000, 1230.000000)">
                <path d="M119.203647,954 L72.9388679,954 C70.7650363,954.003932 69.0037255,955.862836 69,958.157118 L69,979.842702 C69.0037255,982.136984 70.7650363,983.995888 72.9388679,983.99982 L90.9886287,983.99982 C91.4695759,984.004764 91.914185,983.730352 92.1459249,983.285539 L94.8530507,977.485573 C95.0679046,977.017375 95.5174382,976.72 96.0103469,976.72 C96.5032556,976.72 96.9527893,977.017375 97.1676432,977.485573 L99.7461804,983.199825 C99.9589825,983.694394 100.429492,984.008614 100.944084,983.99982 L119.217182,983.99982 C121.385726,983.988046 123.138823,982.13143 123.142514,979.842702 L123.142514,958.157118 C123.138789,955.862836 121.377478,954.003932 119.203647,954 Z M83.7141915,973.878452 C81.7390785,973.887128 79.953619,972.704025 79.191757,970.881743 C78.429895,969.059461 78.8419765,966.957608 80.2355284,965.557908 C81.6290802,964.158208 83.7290988,963.736878 85.5547172,964.490711 C87.3803356,965.244544 88.5712862,967.024778 88.5713052,968.99991 C88.5713311,971.685908 86.4001638,973.866654 83.7141915,973.878452 L83.7141915,973.878452 Z M109.428323,973.878452 C107.45321,973.887128 105.66775,972.704025 104.905889,970.881743 C104.144027,969.059461 104.556108,966.957608 105.94966,965.557908 C107.343212,964.158208 109.44323,963.736878 111.268849,964.490711 C113.094467,965.244544 114.285418,967.024778 114.285437,968.99991 C114.285463,971.685908 112.114295,973.866654 109.428323,973.878452 L109.428323,973.878452 Z" id="Service_VR-Icon"></path>
            </g>
        </g>
    </g>
</svg>